<svg xmlns="http://www.w3.org/2000/svg" width="340" height="315" viewBox="0 0 340 315" version="1.1"><path d="M 167.400 35.400 C 161.566 41.234, 163.568 49.382, 171.478 51.993 C 178.951 54.459, 186.441 46.896, 183.962 39.385 C 182.626 35.338, 177.976 32.009, 173.650 32.004 C 171.739 32.001, 169.680 33.120, 167.400 35.400 M 146.174 35.509 C 143.245 36.229, 140.722 36.972, 140.568 37.159 C 140.414 37.347, 141.268 41.550, 142.467 46.500 C 144.901 56.556, 144.788 56.481, 153.825 54.047 C 157.021 53.187, 158 52.437, 158 50.850 C 158 48.997, 157.602 48.852, 154.250 49.477 C 152.188 49.861, 150.050 50.249, 149.500 50.338 C 148.950 50.427, 148.500 49.854, 148.500 49.064 C 148.500 48.274, 149.992 47.241, 151.815 46.768 C 154.181 46.155, 155.029 45.422, 154.779 44.205 C 154.514 42.912, 153.560 42.567, 150.833 42.779 C 145.171 43.217, 145.027 40.482, 150.637 39.070 C 154.024 38.217, 155.053 37.516, 154.806 36.230 C 154.383 34.037, 152.725 33.899, 146.174 35.509 M 196.250 37.505 C 192.488 40.194, 193.226 44.460, 198 47.619 C 200.200 49.075, 202 50.656, 202 51.133 C 202 52.705, 199.343 52.036, 197.500 50 C 195.546 47.841, 192.513 47.360, 191.473 49.044 C 190.468 50.670, 193.522 54.559, 196.903 55.960 C 200.822 57.583, 204.538 56.634, 206.602 53.484 C 208.105 51.191, 208.105 50.809, 206.606 48.521 C 205.712 47.157, 203.621 45.338, 201.958 44.478 C 200.295 43.618, 199.216 42.460, 199.560 41.903 C 199.956 41.262, 201.055 41.461, 202.557 42.446 C 205.937 44.660, 209 44.459, 209 42.023 C 209 37.881, 200.124 34.735, 196.250 37.505 M 171.051 38.949 C 168.693 41.307, 168.479 42.971, 170.250 45.169 C 174.290 50.183, 181.776 44.760, 178.235 39.385 C 176.696 37.049, 173.165 36.835, 171.051 38.949 M 128.160 41.880 C 127.077 42.567, 127.233 43.537, 128.980 46.961 C 130.168 49.289, 130.976 51.357, 130.776 51.557 C 130.576 51.757, 128.407 50.591, 125.956 48.965 C 120.872 45.592, 120.122 45.456, 117.441 47.427 C 115.556 48.812, 115.628 49.102, 119.894 57.385 C 123.753 64.876, 124.515 65.795, 126.144 64.923 C 128.408 63.711, 128.451 62.774, 126.426 58.857 C 125.561 57.184, 125.068 55.598, 125.332 55.335 C 125.595 55.071, 127.645 56.013, 129.886 57.428 C 134.472 60.323, 135.885 60.545, 138.298 58.750 C 139.833 57.608, 139.612 56.789, 135.739 49.257 C 131.519 41.051, 130.710 40.264, 128.160 41.880 M 219.357 47.992 C 216.128 49.294, 214 52.993, 214 57.299 C 214 68.800, 231.463 70.710, 233.577 59.440 C 235.175 50.925, 227.466 44.719, 219.357 47.992 M 220.571 53.571 C 218.606 55.536, 218.538 59.372, 220.440 60.950 C 222.940 63.025, 227.349 61.826, 228.414 58.780 C 230.150 53.816, 224.247 49.895, 220.571 53.571 M 98.590 61.900 C 96.953 63.709, 97.047 64.227, 100.528 72.650 C 102.540 77.518, 104.366 81.685, 104.587 81.911 C 105.611 82.960, 108.737 78.711, 108.266 76.910 C 107.480 73.902, 110.793 70.796, 114.030 71.507 C 115.789 71.893, 117.119 71.561, 117.983 70.520 C 118.699 69.658, 119.108 68.790, 118.893 68.592 C 117.996 67.771, 101.974 60, 101.177 60 C 100.700 60, 99.536 60.855, 98.590 61.900 M 238.250 67.919 C 231.693 74.035, 231.143 75.044, 233.359 76.883 C 234.398 77.745, 235.352 77.511, 237.418 75.886 L 240.118 73.762 242.403 75.909 C 243.791 77.213, 245.339 77.807, 246.345 77.421 C 248.562 76.570, 248.430 75.086, 245.895 72.388 C 242.306 68.568, 244.795 67.409, 248.622 71.118 C 251.666 74.069, 252.177 74.252, 253.544 72.885 C 254.911 71.518, 254.641 70.874, 250.949 66.680 C 248.684 64.106, 246.306 62.020, 245.665 62.044 C 245.024 62.069, 241.688 64.712, 238.250 67.919 M 104.658 68.551 C 104.964 69.348, 105.616 70, 106.107 70 C 107.545 70, 107.133 68.265, 105.551 67.658 C 104.582 67.286, 104.286 67.582, 104.658 68.551 M 160.802 72.118 L 160.500 77.237 153.500 79.015 C 117.141 88.250, 92.991 122.566, 97.028 159.256 C 98.262 170.464, 101.925 181.904, 107.077 190.630 C 111.903 198.805, 125.108 211.878, 133.500 216.788 C 140.863 221.097, 154.103 226, 158.374 226 C 160.711 226, 160.918 226.385, 161.198 231.250 C 161.492 236.370, 161.581 236.508, 164.750 236.813 L 168 237.127 168 221.006 L 168 204.885 172.250 205.193 L 176.500 205.500 176.775 221.250 L 177.051 237 179.973 237 C 182.784 237, 182.907 236.804, 183.198 231.871 L 183.500 226.742 190 225.032 C 227.117 215.269, 251.715 180.277, 246.994 143.955 C 244.506 124.815, 237.468 110.503, 224.340 97.888 C 215.234 89.138, 202.743 81.725, 193.500 79.584 C 182.485 77.033, 183 77.407, 183 71.961 L 183 67 179.478 67 L 175.957 67 176.228 86.112 L 176.500 105.225 184.055 107.403 C 191.405 109.522, 200.203 113.901, 201.576 116.124 C 201.956 116.738, 199.566 119.914, 196.164 123.316 L 190.072 129.408 185.786 126.954 C 182.107 124.848, 180.224 124.500, 172.500 124.500 C 162.234 124.500, 158.409 125.896, 152.218 131.904 C 146.185 137.759, 144.500 142.146, 144.500 152 C 144.500 161.737, 146.160 166.160, 152.009 172.009 C 160.384 180.384, 173.693 182.569, 184.676 177.374 L 190.227 174.747 196.309 180.829 C 202.160 186.680, 202.325 186.983, 200.659 188.824 C 197.724 192.067, 185.684 196.995, 178.617 197.846 C 163.820 199.627, 147.736 194.647, 144.222 187.196 C 142.008 182.501, 138.198 180.985, 134.577 183.357 C 129.328 186.797, 132.238 195, 138.707 195 C 139.952 195, 143.114 196.296, 145.735 197.879 C 148.356 199.463, 152.863 201.524, 155.750 202.460 L 161 204.161 161 212.080 C 161 216.436, 160.573 220, 160.052 220 C 159.530 220, 155.593 218.891, 151.302 217.535 C 128.785 210.422, 111.477 192.068, 105.487 168.948 C 103.221 160.204, 103.156 143.232, 105.359 135.500 C 110.361 117.946, 120.402 104.060, 135 94.506 C 141.772 90.074, 154.348 85, 158.560 85 C 160.991 85, 161 85.039, 161 95.441 C 161 101.184, 161.340 106.092, 161.756 106.349 C 162.171 106.606, 163.746 106.580, 165.256 106.291 L 168 105.767 168 86.383 L 168 67 164.552 67 C 161.110 67, 161.104 67.009, 160.802 72.118 M 82.400 81.400 C 73.772 90.028, 83.896 102.242, 94.941 96.530 C 98.754 94.559, 101.070 88.237, 99.112 85.147 C 97.821 83.109, 94 85.493, 94 88.335 C 94 93.117, 88.342 94.754, 85.557 90.777 C 83.430 87.741, 83.545 87.227, 87.107 83.900 C 88.979 82.151, 89.985 80.403, 89.638 79.499 C 88.704 77.066, 86.032 77.768, 82.400 81.400 M 258.764 80.112 C 257.326 80.917, 257.252 81.459, 258.273 83.701 C 259.028 85.358, 259.108 86.468, 258.488 86.681 C 256.064 87.513, 247.002 93.113, 247.015 93.770 C 247.024 94.172, 247.466 95.175, 247.998 96 C 248.824 97.280, 249.934 96.988, 255.568 94.006 C 261.904 90.654, 262.226 90.588, 263.537 92.382 C 264.955 94.321, 268 93.995, 268 91.903 C 268 90.601, 262.269 80.284, 261.167 79.603 C 260.777 79.362, 259.695 79.591, 258.764 80.112 M 183.549 84.784 C 183.247 85.086, 183 88.601, 183 92.596 L 183 99.858 188.250 101.398 C 204.807 106.255, 218.942 121.163, 223.469 138.542 C 225.373 145.851, 225.449 159.189, 223.623 165.258 C 222.865 167.775, 222.468 170.996, 222.739 172.415 C 224.285 180.500, 213.353 182.860, 210.768 175 C 210.104 172.981, 212.708 168, 214.428 168 C 217.589 168, 219.808 153.795, 218.093 144.537 C 216.911 138.153, 212.563 128.046, 209.287 124.066 L 207.283 121.631 198.560 130.354 L 189.837 139.078 186.689 136 C 184.854 134.207, 181.270 132.262, 178.099 131.340 C 162.154 126.705, 147.640 140.315, 151.044 156.711 C 152.534 163.890, 159.250 171.214, 165.990 173.010 C 173.432 174.993, 181.397 173.099, 186.708 168.085 C 187.923 166.938, 189.280 166, 189.725 166 C 190.170 166, 195.417 170.898, 201.384 176.884 L 212.235 187.768 206.976 191.925 C 200.129 197.337, 194.725 200.379, 188.250 202.468 L 183 204.161 183 212.080 C 183 221.464, 182.653 221.317, 194.769 217.044 C 214.644 210.035, 230.549 194.048, 237.757 173.835 C 240.070 167.347, 240.379 164.941, 240.427 153 C 240.486 138.253, 239.090 132.064, 232.968 119.936 C 226.555 107.232, 212.958 94.711, 199.427 89.049 C 191.850 85.878, 184.444 83.889, 183.549 84.784 M 145.223 102.557 C 144 103.413, 143 104.576, 143 105.141 C 143 105.706, 139.738 109.404, 135.750 113.357 C 124.207 124.802, 119 136.814, 119 152 C 119 160.655, 120.870 168.836, 124.473 175.946 C 127.590 182.097, 128.675 182.769, 131.283 180.162 L 133.364 178.081 130.687 172.614 C 126.987 165.058, 125.691 158.101, 126.195 148.502 C 126.761 137.724, 131.446 127.424, 139.400 119.470 C 144.207 114.663, 145.355 114, 148.878 114 C 155.592 114, 158.199 108.108, 153.545 103.455 C 150.708 100.617, 148.355 100.363, 145.223 102.557 M 67.777 127.382 C 65.612 131.796, 64.538 132.928, 62.056 133.408 C 60.375 133.734, 57.542 134.285, 55.759 134.632 L 52.518 135.265 57.177 139.382 L 61.836 143.500 60.854 148.853 C 60.314 151.797, 60.095 154.429, 60.369 154.702 C 60.642 154.975, 63.094 153.985, 65.818 152.503 C 69.879 150.292, 71.148 150.009, 72.865 150.928 C 74.017 151.544, 76.093 151.764, 77.479 151.416 C 79.628 150.876, 80 150.215, 80 146.928 C 80 143.682, 80.670 142.447, 84.242 139.116 C 88.991 134.685, 89.280 135.045, 79.742 133.511 C 76.403 132.974, 75.677 132.297, 73.214 127.427 L 70.443 121.947 67.777 127.382 M 269.777 127.382 C 267.612 131.796, 266.538 132.928, 264.056 133.408 C 262.375 133.734, 259.546 134.283, 257.770 134.630 L 254.540 135.260 259.166 139.449 L 263.793 143.637 262.832 148.921 C 262.304 151.828, 262.081 154.414, 262.337 154.670 C 262.592 154.925, 265.104 153.968, 267.918 152.541 C 271.704 150.623, 273.504 150.199, 274.836 150.912 C 278.722 152.992, 281.955 150.788, 281.985 146.038 C 281.994 144.510, 283.575 141.971, 286.152 139.345 C 290.797 134.612, 291.103 135.016, 281.742 133.511 C 278.403 132.974, 277.677 132.297, 275.214 127.427 L 272.443 121.947 269.777 127.382 M 82.323 183.866 C 82.881 186.657, 82.718 186.786, 76.198 188.724 C 70.898 190.299, 69.433 191.162, 69.180 192.857 C 68.792 195.465, 68.928 195.467, 76.843 192.986 C 83.364 190.942, 85 191.057, 85 193.559 C 85 194.352, 85.900 195, 87 195 C 89.479 195, 89.476 194.799, 86.908 187.194 C 85.561 183.205, 84.271 181, 83.283 181 C 82.129 181, 81.892 181.708, 82.323 183.866 M 259 183.923 C 259 184.981, 260.137 187.197, 261.526 188.848 C 264.320 192.169, 264.156 192.439, 258.750 193.414 C 255.998 193.911, 255 194.587, 255 195.957 C 255 197.725, 255.311 197.750, 260.979 196.428 C 265.302 195.419, 267.703 195.317, 269.651 196.057 C 271.133 196.621, 272.942 196.852, 273.672 196.572 C 276.083 195.647, 275.057 193.171, 271.984 192.496 C 270.108 192.084, 267.368 189.976, 264.734 186.918 C 260.126 181.567, 259 180.979, 259 183.923 M 82.841 204.916 C 76.427 208.819, 75.338 209.853, 76.141 211.288 C 77.013 212.845, 77.362 212.864, 80 211.500 C 84.025 209.418, 84.410 209.540, 86.292 213.486 L 87.954 216.972 84.977 218.512 C 81.816 220.146, 81.536 220.719, 82.867 222.819 C 83.510 223.834, 85.464 223.068, 91.351 219.494 C 98.376 215.229, 100.045 213.378, 98.373 211.707 C 98.028 211.362, 96.476 211.737, 94.923 212.540 C 91.075 214.530, 90.759 214.442, 88.694 210.815 C 87.254 208.286, 87.153 207.490, 88.194 206.890 C 88.912 206.476, 90.400 205.459, 91.500 204.630 C 93.272 203.294, 93.329 202.959, 92 201.690 C 90.690 200.439, 89.532 200.847, 82.841 204.916 M 248.516 207.950 C 248.069 209.359, 249.510 211.988, 253.698 217.406 C 256.889 221.534, 259.807 224.931, 260.183 224.956 C 261.484 225.040, 262.160 220.897, 261.060 219.572 C 259.447 217.628, 262.836 212.015, 265.628 212.006 C 266.798 212.003, 268.284 211.363, 268.930 210.584 C 270.299 208.934, 269.698 208.681, 260.566 207.056 C 251.771 205.491, 249.237 205.679, 248.516 207.950 M 255 211.878 C 255 213.189, 257.585 215.082, 258.342 214.325 C 259.711 212.956, 258.922 211, 257 211 C 255.900 211, 255 211.395, 255 211.878 M 242.025 218.470 C 240.853 219.882, 240.975 220.768, 242.875 224.679 C 244.094 227.189, 244.914 229.419, 244.698 229.636 C 244.481 229.852, 242.174 228.838, 239.569 227.383 C 235.356 225.028, 234.669 224.902, 233.332 226.240 C 231.994 227.578, 232.058 228.194, 233.914 231.832 C 236.973 237.828, 236.528 238.466, 231.317 235.554 C 227.357 233.340, 226.424 233.147, 225.267 234.304 C 223.568 236.004, 223.961 236.340, 233.752 241.559 C 240.468 245.137, 241.126 245.302, 242.642 243.787 C 244.157 242.272, 244.080 241.812, 241.597 237.575 C 238.594 232.451, 239.307 231.966, 245.015 235.250 C 248.615 237.321, 249.055 237.372, 250.542 235.885 C 252.029 234.399, 251.810 233.578, 247.774 225.547 C 243.889 217.815, 243.236 217.011, 242.025 218.470 M 96.406 225.383 L 89.500 231.876 94.232 236.656 C 97.937 240.400, 99.226 241.174, 100.175 240.225 C 101.124 239.276, 100.775 238.374, 98.564 236.066 C 96.853 234.281, 95.976 232.504, 96.339 231.560 C 97.173 229.385, 98.281 229.606, 100.988 232.488 C 102.811 234.427, 103.628 234.724, 104.701 233.833 C 105.841 232.887, 105.622 232.215, 103.430 229.927 C 100.850 227.234, 100.829 225, 103.385 225 C 104.081 225, 105.708 226.125, 107 227.500 C 108.292 228.875, 109.945 230, 110.674 230 C 113.147 230, 112.015 227.431, 107.656 223.153 L 103.312 218.890 96.406 225.383 M 118.005 244.491 C 115.731 248.610, 114.151 252.435, 114.494 252.991 C 115.540 254.683, 117.828 254.118, 118.500 252 C 119.577 248.607, 121.776 249.713, 122.502 254.013 C 122.912 256.438, 123.936 258.430, 125.090 259.048 C 126.819 259.974, 127 259.699, 127 256.144 C 127 252.845, 127.380 252.122, 129.373 251.621 C 132.505 250.835, 134.597 245.984, 133.050 243.094 C 132.003 241.137, 125.254 237, 123.110 237 C 122.576 237, 120.279 240.371, 118.005 244.491 M 123.022 243.958 C 122.181 245.531, 122.358 246.121, 123.922 246.958 C 128.305 249.304, 131.418 247.224, 128.443 243.937 C 126.208 241.468, 124.351 241.475, 123.022 243.958 M 204.330 244.723 C 199.919 246.532, 198.318 247.666, 198.715 248.701 C 199.087 249.669, 200.067 249.949, 201.675 249.546 C 203.717 249.033, 204.297 249.472, 205.539 252.471 C 206.343 254.412, 207.650 257.570, 208.445 259.490 C 209.469 261.963, 210.342 262.806, 211.445 262.383 C 213.522 261.586, 213.417 260.546, 210.547 253.501 L 208.103 247.502 210.515 246.238 C 212.017 245.451, 212.712 244.413, 212.357 243.487 C 211.657 241.664, 211.871 241.631, 204.330 244.723 M 138.582 253.753 C 135.519 262.950, 135.438 264, 137.788 264 C 139.140 264, 140.227 262.013, 142.250 255.843 C 143.721 251.357, 144.689 247.307, 144.403 246.843 C 142.875 244.371, 140.943 246.665, 138.582 253.753 M 189 252.881 C 189 256.716, 188.827 256.942, 185.390 257.587 C 181.429 258.330, 180.042 257.211, 180.015 253.250 C 180.005 251.672, 179.403 251, 178 251 C 175.655 251, 175.653 251.033, 177.156 261.793 C 178.089 268.470, 178.625 270.027, 179.908 269.783 C 180.938 269.587, 181.676 268.072, 182 265.490 C 182.473 261.718, 182.702 261.483, 186.194 261.193 C 189.715 260.900, 189.919 261.053, 190.555 264.443 C 191.045 267.055, 191.734 268, 193.146 268 C 194.883 268, 195.005 267.493, 194.406 262.750 C 192.966 251.352, 192.469 249.521, 190.724 249.185 C 189.322 248.915, 189 249.607, 189 252.881 M 152.672 252.043 C 147.429 256.168, 148.622 265.437, 154.703 267.810 C 156.241 268.410, 159.750 269.036, 162.500 269.201 L 167.500 269.500 167.800 264.865 L 168.100 260.231 164.300 259.746 C 159.723 259.162, 157.700 260.544, 160.310 262.471 C 162.611 264.171, 160.863 265.433, 157.409 264.567 C 153.748 263.648, 152.278 259.751, 154.381 256.541 C 156.101 253.917, 161.229 252.943, 162.500 255 C 163.449 256.536, 167 256.186, 167 254.557 C 167 250.223, 157.177 248.500, 152.672 252.043" stroke="none" fill="#c0a25c" fill-rule="evenodd"/><path d="M 0 157.503 L 0 315.006 170.250 314.753 L 340.500 314.500 340.753 157.250 L 341.006 0 170.503 0 L 0 0 0 157.503 M 0.488 158 C 0.488 244.625, 0.606 280.063, 0.750 236.750 C 0.894 193.438, 0.894 122.563, 0.750 79.250 C 0.606 35.938, 0.488 71.375, 0.488 158 M 167.400 35.400 C 161.566 41.234, 163.568 49.382, 171.478 51.993 C 178.951 54.459, 186.441 46.896, 183.962 39.385 C 182.626 35.338, 177.976 32.009, 173.650 32.004 C 171.739 32.001, 169.680 33.120, 167.400 35.400 M 146.174 35.509 C 143.245 36.229, 140.722 36.972, 140.568 37.159 C 140.414 37.347, 141.268 41.550, 142.467 46.500 C 144.901 56.556, 144.788 56.481, 153.825 54.047 C 157.021 53.187, 158 52.437, 158 50.850 C 158 48.997, 157.602 48.852, 154.250 49.477 C 152.188 49.861, 150.050 50.249, 149.500 50.338 C 148.950 50.427, 148.500 49.854, 148.500 49.064 C 148.500 48.274, 149.992 47.241, 151.815 46.768 C 154.181 46.155, 155.029 45.422, 154.779 44.205 C 154.514 42.912, 153.560 42.567, 150.833 42.779 C 145.171 43.217, 145.027 40.482, 150.637 39.070 C 154.024 38.217, 155.053 37.516, 154.806 36.230 C 154.383 34.037, 152.725 33.899, 146.174 35.509 M 196.250 37.505 C 192.488 40.194, 193.226 44.460, 198 47.619 C 200.200 49.075, 202 50.656, 202 51.133 C 202 52.705, 199.343 52.036, 197.500 50 C 195.546 47.841, 192.513 47.360, 191.473 49.044 C 190.468 50.670, 193.522 54.559, 196.903 55.960 C 200.822 57.583, 204.538 56.634, 206.602 53.484 C 208.105 51.191, 208.105 50.809, 206.606 48.521 C 205.712 47.157, 203.621 45.338, 201.958 44.478 C 200.295 43.618, 199.216 42.460, 199.560 41.903 C 199.956 41.262, 201.055 41.461, 202.557 42.446 C 205.937 44.660, 209 44.459, 209 42.023 C 209 37.881, 200.124 34.735, 196.250 37.505 M 171.051 38.949 C 168.693 41.307, 168.479 42.971, 170.250 45.169 C 174.290 50.183, 181.776 44.760, 178.235 39.385 C 176.696 37.049, 173.165 36.835, 171.051 38.949 M 128.160 41.880 C 127.077 42.567, 127.233 43.537, 128.980 46.961 C 130.168 49.289, 130.976 51.357, 130.776 51.557 C 130.576 51.757, 128.407 50.591, 125.956 48.965 C 120.872 45.592, 120.122 45.456, 117.441 47.427 C 115.556 48.812, 115.628 49.102, 119.894 57.385 C 123.753 64.876, 124.515 65.795, 126.144 64.923 C 128.408 63.711, 128.451 62.774, 126.426 58.857 C 125.561 57.184, 125.068 55.598, 125.332 55.335 C 125.595 55.071, 127.645 56.013, 129.886 57.428 C 134.472 60.323, 135.885 60.545, 138.298 58.750 C 139.833 57.608, 139.612 56.789, 135.739 49.257 C 131.519 41.051, 130.710 40.264, 128.160 41.880 M 219.357 47.992 C 216.128 49.294, 214 52.993, 214 57.299 C 214 68.800, 231.463 70.710, 233.577 59.440 C 235.175 50.925, 227.466 44.719, 219.357 47.992 M 220.571 53.571 C 218.606 55.536, 218.538 59.372, 220.440 60.950 C 222.940 63.025, 227.349 61.826, 228.414 58.780 C 230.150 53.816, 224.247 49.895, 220.571 53.571 M 98.590 61.900 C 96.953 63.709, 97.047 64.227, 100.528 72.650 C 102.540 77.518, 104.366 81.685, 104.587 81.911 C 105.611 82.960, 108.737 78.711, 108.266 76.910 C 107.480 73.902, 110.793 70.796, 114.030 71.507 C 115.789 71.893, 117.119 71.561, 117.983 70.520 C 118.699 69.658, 119.108 68.790, 118.893 68.592 C 117.996 67.771, 101.974 60, 101.177 60 C 100.700 60, 99.536 60.855, 98.590 61.900 M 238.250 67.919 C 231.693 74.035, 231.143 75.044, 233.359 76.883 C 234.398 77.745, 235.352 77.511, 237.418 75.886 L 240.118 73.762 242.403 75.909 C 243.791 77.213, 245.339 77.807, 246.345 77.421 C 248.562 76.570, 248.430 75.086, 245.895 72.388 C 242.306 68.568, 244.795 67.409, 248.622 71.118 C 251.666 74.069, 252.177 74.252, 253.544 72.885 C 254.911 71.518, 254.641 70.874, 250.949 66.680 C 248.684 64.106, 246.306 62.020, 245.665 62.044 C 245.024 62.069, 241.688 64.712, 238.250 67.919 M 104.658 68.551 C 104.964 69.348, 105.616 70, 106.107 70 C 107.545 70, 107.133 68.265, 105.551 67.658 C 104.582 67.286, 104.286 67.582, 104.658 68.551 M 160.802 72.118 L 160.500 77.237 153.500 79.015 C 117.141 88.250, 92.991 122.566, 97.028 159.256 C 98.262 170.464, 101.925 181.904, 107.077 190.630 C 111.903 198.805, 125.108 211.878, 133.500 216.788 C 140.863 221.097, 154.103 226, 158.374 226 C 160.711 226, 160.918 226.385, 161.198 231.250 C 161.492 236.370, 161.581 236.508, 164.750 236.813 L 168 237.127 168 221.006 L 168 204.885 172.250 205.193 L 176.500 205.500 176.775 221.250 L 177.051 237 179.973 237 C 182.784 237, 182.907 236.804, 183.198 231.871 L 183.500 226.742 190 225.032 C 227.117 215.269, 251.715 180.277, 246.994 143.955 C 244.506 124.815, 237.468 110.503, 224.340 97.888 C 215.234 89.138, 202.743 81.725, 193.500 79.584 C 182.485 77.033, 183 77.407, 183 71.961 L 183 67 179.478 67 L 175.957 67 176.228 86.112 L 176.500 105.225 184.055 107.403 C 191.405 109.522, 200.203 113.901, 201.576 116.124 C 201.956 116.738, 199.566 119.914, 196.164 123.316 L 190.072 129.408 185.786 126.954 C 182.107 124.848, 180.224 124.500, 172.500 124.500 C 162.234 124.500, 158.409 125.896, 152.218 131.904 C 146.185 137.759, 144.500 142.146, 144.500 152 C 144.500 161.737, 146.160 166.160, 152.009 172.009 C 160.384 180.384, 173.693 182.569, 184.676 177.374 L 190.227 174.747 196.309 180.829 C 202.160 186.680, 202.325 186.983, 200.659 188.824 C 197.724 192.067, 185.684 196.995, 178.617 197.846 C 163.820 199.627, 147.736 194.647, 144.222 187.196 C 142.008 182.501, 138.198 180.985, 134.577 183.357 C 129.328 186.797, 132.238 195, 138.707 195 C 139.952 195, 143.114 196.296, 145.735 197.879 C 148.356 199.463, 152.863 201.524, 155.750 202.460 L 161 204.161 161 212.080 C 161 216.436, 160.573 220, 160.052 220 C 159.530 220, 155.593 218.891, 151.302 217.535 C 128.785 210.422, 111.477 192.068, 105.487 168.948 C 103.221 160.204, 103.156 143.232, 105.359 135.500 C 110.361 117.946, 120.402 104.060, 135 94.506 C 141.772 90.074, 154.348 85, 158.560 85 C 160.991 85, 161 85.039, 161 95.441 C 161 101.184, 161.340 106.092, 161.756 106.349 C 162.171 106.606, 163.746 106.580, 165.256 106.291 L 168 105.767 168 86.383 L 168 67 164.552 67 C 161.110 67, 161.104 67.009, 160.802 72.118 M 82.400 81.400 C 73.772 90.028, 83.896 102.242, 94.941 96.530 C 98.754 94.559, 101.070 88.237, 99.112 85.147 C 97.821 83.109, 94 85.493, 94 88.335 C 94 93.117, 88.342 94.754, 85.557 90.777 C 83.430 87.741, 83.545 87.227, 87.107 83.900 C 88.979 82.151, 89.985 80.403, 89.638 79.499 C 88.704 77.066, 86.032 77.768, 82.400 81.400 M 258.764 80.112 C 257.326 80.917, 257.252 81.459, 258.273 83.701 C 259.028 85.358, 259.108 86.468, 258.488 86.681 C 256.064 87.513, 247.002 93.113, 247.015 93.770 C 247.024 94.172, 247.466 95.175, 247.998 96 C 248.824 97.280, 249.934 96.988, 255.568 94.006 C 261.904 90.654, 262.226 90.588, 263.537 92.382 C 264.955 94.321, 268 93.995, 268 91.903 C 268 90.601, 262.269 80.284, 261.167 79.603 C 260.777 79.362, 259.695 79.591, 258.764 80.112 M 183.549 84.784 C 183.247 85.086, 183 88.601, 183 92.596 L 183 99.858 188.250 101.398 C 204.807 106.255, 218.942 121.163, 223.469 138.542 C 225.373 145.851, 225.449 159.189, 223.623 165.258 C 222.865 167.775, 222.468 170.996, 222.739 172.415 C 224.285 180.500, 213.353 182.860, 210.768 175 C 210.104 172.981, 212.708 168, 214.428 168 C 217.589 168, 219.808 153.795, 218.093 144.537 C 216.911 138.153, 212.563 128.046, 209.287 124.066 L 207.283 121.631 198.560 130.354 L 189.837 139.078 186.689 136 C 184.854 134.207, 181.270 132.262, 178.099 131.340 C 162.154 126.705, 147.640 140.315, 151.044 156.711 C 152.534 163.890, 159.250 171.214, 165.990 173.010 C 173.432 174.993, 181.397 173.099, 186.708 168.085 C 187.923 166.938, 189.280 166, 189.725 166 C 190.170 166, 195.417 170.898, 201.384 176.884 L 212.235 187.768 206.976 191.925 C 200.129 197.337, 194.725 200.379, 188.250 202.468 L 183 204.161 183 212.080 C 183 221.464, 182.653 221.317, 194.769 217.044 C 214.644 210.035, 230.549 194.048, 237.757 173.835 C 240.070 167.347, 240.379 164.941, 240.427 153 C 240.486 138.253, 239.090 132.064, 232.968 119.936 C 226.555 107.232, 212.958 94.711, 199.427 89.049 C 191.850 85.878, 184.444 83.889, 183.549 84.784 M 145.223 102.557 C 144 103.413, 143 104.576, 143 105.141 C 143 105.706, 139.738 109.404, 135.750 113.357 C 124.207 124.802, 119 136.814, 119 152 C 119 160.655, 120.870 168.836, 124.473 175.946 C 127.590 182.097, 128.675 182.769, 131.283 180.162 L 133.364 178.081 130.687 172.614 C 126.987 165.058, 125.691 158.101, 126.195 148.502 C 126.761 137.724, 131.446 127.424, 139.400 119.470 C 144.207 114.663, 145.355 114, 148.878 114 C 155.592 114, 158.199 108.108, 153.545 103.455 C 150.708 100.617, 148.355 100.363, 145.223 102.557 M 67.777 127.382 C 65.612 131.796, 64.538 132.928, 62.056 133.408 C 60.375 133.734, 57.542 134.285, 55.759 134.632 L 52.518 135.265 57.177 139.382 L 61.836 143.500 60.854 148.853 C 60.314 151.797, 60.095 154.429, 60.369 154.702 C 60.642 154.975, 63.094 153.985, 65.818 152.503 C 69.879 150.292, 71.148 150.009, 72.865 150.928 C 74.017 151.544, 76.093 151.764, 77.479 151.416 C 79.628 150.876, 80 150.215, 80 146.928 C 80 143.682, 80.670 142.447, 84.242 139.116 C 88.991 134.685, 89.280 135.045, 79.742 133.511 C 76.403 132.974, 75.677 132.297, 73.214 127.427 L 70.443 121.947 67.777 127.382 M 269.777 127.382 C 267.612 131.796, 266.538 132.928, 264.056 133.408 C 262.375 133.734, 259.546 134.283, 257.770 134.630 L 254.540 135.260 259.166 139.449 L 263.793 143.637 262.832 148.921 C 262.304 151.828, 262.081 154.414, 262.337 154.670 C 262.592 154.925, 265.104 153.968, 267.918 152.541 C 271.704 150.623, 273.504 150.199, 274.836 150.912 C 278.722 152.992, 281.955 150.788, 281.985 146.038 C 281.994 144.510, 283.575 141.971, 286.152 139.345 C 290.797 134.612, 291.103 135.016, 281.742 133.511 C 278.403 132.974, 277.677 132.297, 275.214 127.427 L 272.443 121.947 269.777 127.382 M 82.323 183.866 C 82.881 186.657, 82.718 186.786, 76.198 188.724 C 70.898 190.299, 69.433 191.162, 69.180 192.857 C 68.792 195.465, 68.928 195.467, 76.843 192.986 C 83.364 190.942, 85 191.057, 85 193.559 C 85 194.352, 85.900 195, 87 195 C 89.479 195, 89.476 194.799, 86.908 187.194 C 85.561 183.205, 84.271 181, 83.283 181 C 82.129 181, 81.892 181.708, 82.323 183.866 M 259 183.923 C 259 184.981, 260.137 187.197, 261.526 188.848 C 264.320 192.169, 264.156 192.439, 258.750 193.414 C 255.998 193.911, 255 194.587, 255 195.957 C 255 197.725, 255.311 197.750, 260.979 196.428 C 265.302 195.419, 267.703 195.317, 269.651 196.057 C 271.133 196.621, 272.942 196.852, 273.672 196.572 C 276.083 195.647, 275.057 193.171, 271.984 192.496 C 270.108 192.084, 267.368 189.976, 264.734 186.918 C 260.126 181.567, 259 180.979, 259 183.923 M 82.841 204.916 C 76.427 208.819, 75.338 209.853, 76.141 211.288 C 77.013 212.845, 77.362 212.864, 80 211.500 C 84.025 209.418, 84.410 209.540, 86.292 213.486 L 87.954 216.972 84.977 218.512 C 81.816 220.146, 81.536 220.719, 82.867 222.819 C 83.510 223.834, 85.464 223.068, 91.351 219.494 C 98.376 215.229, 100.045 213.378, 98.373 211.707 C 98.028 211.362, 96.476 211.737, 94.923 212.540 C 91.075 214.530, 90.759 214.442, 88.694 210.815 C 87.254 208.286, 87.153 207.490, 88.194 206.890 C 88.912 206.476, 90.400 205.459, 91.500 204.630 C 93.272 203.294, 93.329 202.959, 92 201.690 C 90.690 200.439, 89.532 200.847, 82.841 204.916 M 248.516 207.950 C 248.069 209.359, 249.510 211.988, 253.698 217.406 C 256.889 221.534, 259.807 224.931, 260.183 224.956 C 261.484 225.040, 262.160 220.897, 261.060 219.572 C 259.447 217.628, 262.836 212.015, 265.628 212.006 C 266.798 212.003, 268.284 211.363, 268.930 210.584 C 270.299 208.934, 269.698 208.681, 260.566 207.056 C 251.771 205.491, 249.237 205.679, 248.516 207.950 M 255 211.878 C 255 213.189, 257.585 215.082, 258.342 214.325 C 259.711 212.956, 258.922 211, 257 211 C 255.900 211, 255 211.395, 255 211.878 M 242.025 218.470 C 240.853 219.882, 240.975 220.768, 242.875 224.679 C 244.094 227.189, 244.914 229.419, 244.698 229.636 C 244.481 229.852, 242.174 228.838, 239.569 227.383 C 235.356 225.028, 234.669 224.902, 233.332 226.240 C 231.994 227.578, 232.058 228.194, 233.914 231.832 C 236.973 237.828, 236.528 238.466, 231.317 235.554 C 227.357 233.340, 226.424 233.147, 225.267 234.304 C 223.568 236.004, 223.961 236.340, 233.752 241.559 C 240.468 245.137, 241.126 245.302, 242.642 243.787 C 244.157 242.272, 244.080 241.812, 241.597 237.575 C 238.594 232.451, 239.307 231.966, 245.015 235.250 C 248.615 237.321, 249.055 237.372, 250.542 235.885 C 252.029 234.399, 251.810 233.578, 247.774 225.547 C 243.889 217.815, 243.236 217.011, 242.025 218.470 M 96.406 225.383 L 89.500 231.876 94.232 236.656 C 97.937 240.400, 99.226 241.174, 100.175 240.225 C 101.124 239.276, 100.775 238.374, 98.564 236.066 C 96.853 234.281, 95.976 232.504, 96.339 231.560 C 97.173 229.385, 98.281 229.606, 100.988 232.488 C 102.811 234.427, 103.628 234.724, 104.701 233.833 C 105.841 232.887, 105.622 232.215, 103.430 229.927 C 100.850 227.234, 100.829 225, 103.385 225 C 104.081 225, 105.708 226.125, 107 227.500 C 108.292 228.875, 109.945 230, 110.674 230 C 113.147 230, 112.015 227.431, 107.656 223.153 L 103.312 218.890 96.406 225.383 M 118.005 244.491 C 115.731 248.610, 114.151 252.435, 114.494 252.991 C 115.540 254.683, 117.828 254.118, 118.500 252 C 119.577 248.607, 121.776 249.713, 122.502 254.013 C 122.912 256.438, 123.936 258.430, 125.090 259.048 C 126.819 259.974, 127 259.699, 127 256.144 C 127 252.845, 127.380 252.122, 129.373 251.621 C 132.505 250.835, 134.597 245.984, 133.050 243.094 C 132.003 241.137, 125.254 237, 123.110 237 C 122.576 237, 120.279 240.371, 118.005 244.491 M 123.022 243.958 C 122.181 245.531, 122.358 246.121, 123.922 246.958 C 128.305 249.304, 131.418 247.224, 128.443 243.937 C 126.208 241.468, 124.351 241.475, 123.022 243.958 M 204.330 244.723 C 199.919 246.532, 198.318 247.666, 198.715 248.701 C 199.087 249.669, 200.067 249.949, 201.675 249.546 C 203.717 249.033, 204.297 249.472, 205.539 252.471 C 206.343 254.412, 207.650 257.570, 208.445 259.490 C 209.469 261.963, 210.342 262.806, 211.445 262.383 C 213.522 261.586, 213.417 260.546, 210.547 253.501 L 208.103 247.502 210.515 246.238 C 212.017 245.451, 212.712 244.413, 212.357 243.487 C 211.657 241.664, 211.871 241.631, 204.330 244.723 M 138.582 253.753 C 135.519 262.950, 135.438 264, 137.788 264 C 139.140 264, 140.227 262.013, 142.250 255.843 C 143.721 251.357, 144.689 247.307, 144.403 246.843 C 142.875 244.371, 140.943 246.665, 138.582 253.753 M 189 252.881 C 189 256.716, 188.827 256.942, 185.390 257.587 C 181.429 258.330, 180.042 257.211, 180.015 253.250 C 180.005 251.672, 179.403 251, 178 251 C 175.655 251, 175.653 251.033, 177.156 261.793 C 178.089 268.470, 178.625 270.027, 179.908 269.783 C 180.938 269.587, 181.676 268.072, 182 265.490 C 182.473 261.718, 182.702 261.483, 186.194 261.193 C 189.715 260.900, 189.919 261.053, 190.555 264.443 C 191.045 267.055, 191.734 268, 193.146 268 C 194.883 268, 195.005 267.493, 194.406 262.750 C 192.966 251.352, 192.469 249.521, 190.724 249.185 C 189.322 248.915, 189 249.607, 189 252.881 M 152.672 252.043 C 147.429 256.168, 148.622 265.437, 154.703 267.810 C 156.241 268.410, 159.750 269.036, 162.500 269.201 L 167.500 269.500 167.800 264.865 L 168.100 260.231 164.300 259.746 C 159.723 259.162, 157.700 260.544, 160.310 262.471 C 162.611 264.171, 160.863 265.433, 157.409 264.567 C 153.748 263.648, 152.278 259.751, 154.381 256.541 C 156.101 253.917, 161.229 252.943, 162.500 255 C 163.449 256.536, 167 256.186, 167 254.557 C 167 250.223, 157.177 248.500, 152.672 252.043" stroke="none" fill="#060604" fill-rule="evenodd"/></svg>