<svg width="800" height="800" viewBox="0 0 800 800" fill="none" xmlns="http://www.w3.org/2000/svg">
<g clip-path="url(#clip0_100_1587)">
<path d="M800 580.769H0V592.477H800V580.769Z" fill="#0089D1"/>
<path fill-rule="evenodd" clip-rule="evenodd" d="M100.254 526.025V528.156V545.458V546.876V549.714V578.195V587.778L103.713 592.477H94.043H79.227H66.363L69.201 587.778H69.289V550.424L67.426 545.279H74.08H71.952H69.378C68.758 537.738 62.37 531.705 54.741 531.705C46.933 531.705 40.633 537.738 40.013 545.279H37.439H35.221H41.964L40.1 550.424V587.778H40.189L43.56 592.477H30.34H16.057H6.29698L9.04799 587.778V578.195V549.714V546.876V545.458V528.156V526.025V519.905V519.105L0.974984 512.806H0.708984V512.539V512.185H9.04799V506.063V504.38V502.959V501.984H100.254V502.959V504.38V506.063V512.185H108.682V512.364V512.806H108.239L100.254 519.105V519.905V526.025Z" fill="#0089D1"/>
<path fill-rule="evenodd" clip-rule="evenodd" d="M102.828 539.336V549.094V549.894V550.691H103.448V567.015V568.08V574.204V575.267V589.907V591.77V592.477H210.178V591.77V589.907V575.267V574.204V568.08V567.015V550.69H211.333V549.893V549.093V539.335V538.005H209.825V528.866V506.684V505.265V485.392V483.969V443.249H211.953V440.586H207.695V436.594H206.186V435.354H205.743L204.057 432.337L202.283 429.142L200.597 432.337L198.91 435.354H198.466V436.594H173.27V440.586H168.923V443.249H171.318V483.969V485.392V486.457H160.849L159.162 473.767L158.807 470.397V452.298H161.646V450.078H158.807V447.682H156.411V450.078H153.573V452.298H156.411V469.953L155.879 473.766L154.194 486.456H142.394V485.391V483.968V443.248H144.524V440.585H140.264V436.593H115.599V435.353H115.156L113.47 432.336L111.785 429.141L110.011 432.336L108.413 435.353H107.881V436.593H105.839V440.585H101.493V443.248H103.887V483.968V485.391V505.264V506.683V528.865V538.004H102.824V539.336H102.828ZM142.397 490.45H154.286V497.904L153.576 499.054L149.495 505.445H142.397V505.266V490.45ZM160.852 490.45H171.321V505.266V505.445H165.642L161.649 499.054L160.852 497.904V490.45ZM144.261 523.099C144.615 516.711 149.584 511.655 155.883 511.212C149.584 511.654 144.615 516.8 144.261 523.099ZM203.436 506.332H177.707V505.267V486.813H203.436V505.267V506.332ZM194.21 489.919C195.096 489.919 195.895 490.45 195.895 491.069V504.29H192.524V491.069C192.525 490.45 193.234 489.919 194.21 489.919ZM187.556 489.919C188.443 489.919 189.242 490.45 189.242 491.069V504.29H185.871V491.069C185.871 490.45 186.58 489.919 187.556 489.919ZM198.025 512.808H201.485V509.348H198.025V512.808ZM179.837 512.808H183.385V509.348H179.837V512.808ZM126.782 489.919C127.669 489.919 128.467 490.45 128.467 491.069V504.29H125.095V491.069C125.096 490.45 125.807 489.919 126.782 489.919ZM120.127 489.919C121.016 489.919 121.725 490.45 121.725 491.069V504.29H118.442V491.069C118.442 490.45 119.151 489.919 120.127 489.919ZM130.596 512.808H134.058V509.348H130.596V512.808ZM112.408 512.808H115.869V509.348H112.408V512.808ZM203.704 589.907H201.309V566.484C201.309 559.298 190.751 553.442 190.751 553.442C190.751 553.442 180.192 559.298 180.192 566.484V589.907H176.732V575.267V574.204V568.08V567.015V550.69H203.704V567.014V568.079V574.203V575.266V589.907ZM170.255 589.907H167.506V566.484C167.506 559.298 156.947 553.442 156.947 553.442C156.947 553.442 146.389 559.298 146.389 566.484V589.907H143.372V575.267V574.204V568.08V567.015V550.69H170.255V567.014V568.079V574.203V575.266V589.907ZM136.808 589.907H133.791V566.484C133.791 559.298 123.233 553.442 123.233 553.442C123.233 553.442 112.675 559.298 112.675 566.484V589.907H110.014V575.267V574.204V568.08V567.015V550.69H136.807V567.014V568.079V574.203V575.266L136.808 589.907Z" fill="#0089D1"/>
<path fill-rule="evenodd" clip-rule="evenodd" d="M547.854 586.179H549.628L536.231 560.272C529.222 553.529 519.64 549.45 509.172 549.45C499.589 549.45 490.892 552.91 484.15 558.587L469.866 586.18H472.439V592.478H438.726V586.18H443.161L470.929 532.506V524.432H476.874L486.722 496.216V495.595H486.9L489.652 487.61H488.588V480.158H491.693V478.74H487.078V470.665H494.088C499.322 429.677 501.807 359.232 502.606 336.698H502.427V334.924H502.695L502.783 330.576H501.542V323.299H504.737V314.337H508.462V301.651H509.704V290.029H511.125V301.651H512.454V314.337H516.091V323.299H519.375V330.573H518.045L518.222 334.921H518.4V336.695H518.311C518.755 349.383 519.641 377.417 521.417 406.873L521.505 407.139L521.417 407.227C522.48 425.061 523.81 443.25 525.408 458.865C525.85 463.122 526.382 466.938 526.737 470.663H533.836V478.738H529.223V480.156H532.241V487.608H531.531L534.283 495.593L544.307 524.43H547.409V531.971L548.033 531.704L576.245 586.178H581.569V592.476H547.855L547.854 586.179ZM479.36 522.565L488.322 517.331L483.087 512.274L479.36 522.565ZM484.419 508.104L492.402 502.871L487.88 498.346L484.419 508.104ZM489.12 494.798L494.975 491.069L491.428 488.056L489.12 494.798ZM529.576 487.608H529.309L525.938 490.802L531.883 494.262L529.576 487.608ZM533.39 498.435L529.222 502.692L536.407 507.215L533.39 498.435ZM538.094 511.922L532.415 517.331L541.909 522.833L538.094 511.922ZM509.435 330.573L507.305 332.348L505.178 330.573H509.435ZM506.686 332.97L504.201 334.922L504.378 330.928L506.686 332.97ZM505.356 334.921L507.129 333.413L508.727 334.921H505.356ZM507.841 332.881L509.614 331.461V331.55V331.638V332.081V332.17V332.702V332.792V333.413V333.59V334.476L507.841 332.881ZM509.614 336.873L506.951 339.624L504.201 336.696H509.614V336.873ZM506.243 340.332L504.023 342.729L504.112 337.938L506.243 340.332ZM504.023 343.882L506.862 340.953L509.435 343.882H504.023ZM507.483 340.245L509.614 338.027V342.55L507.483 340.245ZM509.614 345.656L506.774 348.495L504.201 345.567H509.614V345.656ZM505.976 349.116L503.67 351.6L503.845 346.543L505.976 349.116ZM503.581 352.844L506.686 349.827L509.259 352.932H503.58V352.844H503.581ZM507.306 349.116L509.615 346.81V351.778L507.306 349.116ZM509.614 354.795L506.686 357.633L503.934 354.617H509.614V354.795ZM505.888 358.344L503.315 360.827V360.296L503.492 355.681L505.888 358.344ZM503.491 361.804L506.508 358.964L509.082 361.804H503.491ZM507.13 358.344L509.614 356.037V361.004L507.13 358.344ZM509.614 364.11L506.686 366.684L503.491 363.49H509.435L509.614 363.578V364.11ZM505.888 367.304L502.96 369.789L503.227 364.555L505.888 367.304ZM503.049 370.852L506.508 367.926L509.348 370.852H503.049ZM507.13 367.304L509.614 365.264V367.393V367.748V368.369V368.636V369.347V369.701L507.13 367.304ZM511.303 363.844L511.567 363.49H517.509L514.495 366.684L511.303 363.933V363.844ZM509.614 372.628L506.243 375.466L503.314 372.539H509.614V372.628ZM505.533 376.088L502.605 378.572L502.782 373.337L505.533 376.088ZM502.427 379.725L506.155 376.708L509.173 379.902H502.428V379.725H502.427ZM506.862 376.088L509.435 373.78V374.313V375.022V375.643V376.531V377.152V378.04V378.749V378.837L506.862 376.088ZM509.348 381.678L505.976 384.605L502.96 381.5H509.348V381.678ZM505.268 385.226L502.163 387.977L502.341 382.298L505.268 385.226ZM502.427 388.775L505.888 385.848L508.816 388.775H502.427ZM506.686 385.226L509.347 382.831V383.363V383.806V385.137V385.669L509.259 387.088V387.531V387.975L506.686 385.226ZM502.605 381.5L502.339 382.298L502.426 381.5H502.605ZM508.993 390.46L505.8 393.3L502.96 390.46H508.993ZM505.001 394.009L501.631 397.026L501.897 390.994L505.001 394.009ZM502.252 397.824L505.712 394.631L508.993 397.824H502.252ZM506.508 393.92L509.26 391.525L509.172 393.033V393.299V395.162V395.339L509.082 396.405L506.508 393.92ZM508.461 399.51L505.357 402.083L502.783 399.51H508.461ZM504.469 402.972L501.096 405.722L501.541 399.865L504.469 402.972ZM501.631 406.785L505.268 403.68L508.197 406.785H501.631ZM506.243 402.972L508.993 400.485V401.641L508.815 405.632L506.243 402.972ZM508.727 408.474L505.356 411.31L502.694 408.474H508.727ZM504.469 412.019L500.564 415.393L501.01 408.474L504.469 412.019ZM501.896 415.746L505.267 412.907L508.106 415.746H501.896ZM506.243 412.019L508.727 409.978V410.335L508.638 410.777V412.552V413.084L508.55 414.502L506.243 412.019ZM507.93 417.43L504.737 420.004L502.253 417.43H507.93ZM503.845 420.892L499.943 424.174L500.475 417.43L503.845 420.892ZM501.096 424.706L504.647 421.69L507.663 424.706H501.096ZM505.622 420.892L508.461 418.41L508.373 419.386V420.094L508.196 423.465L505.622 420.892ZM507.306 426.393L503.935 429.143L501.277 426.393H507.306ZM502.96 429.852L499.322 432.78L499.854 426.479L502.96 429.852ZM500.031 433.667L503.844 430.739L506.507 433.667H500.031ZM504.646 429.941L508.017 427.368C507.929 429.231 507.84 431.27 507.662 433.135L504.646 429.941ZM507.041 435.443L503.67 438.012L501.096 435.443H507.041ZM502.782 438.814L498.613 442.096C498.791 439.965 498.967 437.658 499.145 435.443H499.5L502.782 438.814ZM499.854 442.628L503.491 439.611L506.331 442.628H499.854ZM504.469 438.903L507.484 436.506C507.395 438.282 507.306 440.054 507.13 441.742L504.469 438.903ZM505.622 444.314L502.694 446.709L500.474 444.314H505.622ZM501.719 447.507L497.817 450.523C498.083 448.573 498.26 446.445 498.347 444.314H498.791L501.719 447.507ZM498.347 451.679L502.427 448.308L505.712 451.679H498.347ZM503.402 447.595L506.951 444.76C506.774 446.709 506.686 448.84 506.42 450.701L503.402 447.595ZM505.8 453.364L501.897 456.381L499.146 453.364H505.8ZM501.01 457.089L497.194 460.283H496.926C497.104 458.066 497.281 455.76 497.547 453.453L501.01 457.089ZM498.967 460.283L501.807 457.979L503.935 460.283H498.967ZM502.782 457.267L506.154 454.604C505.887 456.471 505.712 458.423 505.533 460.106L502.782 457.267ZM505.091 461.972L500.741 465.52L497.458 461.972H505.091ZM499.854 466.227L495.862 469.423C496.04 467.292 496.393 465.074 496.572 462.857L499.854 466.227ZM496.04 470.663L500.563 467.114L503.581 470.308V470.398L503.491 470.663H496.04ZM501.541 466.317L505.001 463.565C504.646 465.519 504.378 467.381 504.023 468.979L501.541 466.317ZM511.656 330.573L513.871 332.348L515.913 330.573H511.656ZM514.495 332.97L516.623 334.656L516.534 331.106L514.495 332.97ZM515.647 334.921L513.96 333.413L512.277 334.921H515.647ZM513.251 332.881L511.303 331.194V331.551V331.639V332.082V332.171V332.703V332.793V333.414V333.591V334.656L513.251 332.881ZM511.303 336.696L514.226 339.624L516.712 336.785V336.696H511.303ZM514.85 340.332L516.801 342.461L516.712 338.292L514.85 340.332ZM516.888 343.704L514.319 340.953L511.567 343.882H516.888V343.704ZM513.605 340.245L511.302 337.848V342.818L513.605 340.245ZM511.477 345.567L514.406 348.495L516.8 345.567H511.477ZM515.026 349.116L517.155 351.246L517.065 346.81L515.026 349.116ZM517.243 352.487L514.495 349.827L511.922 352.932H517.243V352.487ZM513.783 349.116L511.303 346.632V352.221L513.783 349.116ZM511.303 354.618L514.495 357.634L517.243 354.618H511.303ZM515.205 358.344L517.509 360.473L517.331 355.948L515.205 358.344ZM517.509 361.804L514.584 358.964L512.099 361.804H517.509ZM513.871 358.344L511.303 355.859V361.272L513.871 358.344ZM515.205 367.304L517.866 369.612L517.685 364.732L515.205 367.304ZM517.956 370.764L514.584 367.927L511.656 370.853H517.956V370.764ZM513.871 367.304L511.303 365.086V367.393V367.748V368.369V368.636V369.347V369.789V369.878L513.871 367.304ZM511.477 372.539L514.938 375.466L517.866 372.539H511.477ZM515.647 376.088L518.309 378.394L518.043 373.691L515.647 376.088ZM518.31 379.548L515.027 376.708L512.01 379.902H518.399L518.31 379.548ZM514.318 376.088L511.389 373.603V374.314V375.023V375.644V376.532V377.153V378.041V378.75V379.016L514.318 376.088ZM511.477 381.5L515.116 384.605L518.22 381.5H511.477ZM515.913 385.226L518.754 387.711L518.486 382.565L515.913 385.226ZM518.754 388.775L515.205 385.848L512.277 388.775H518.754ZM514.495 385.226L511.477 382.565V383.363V383.806V385.137V385.669L511.566 387.088V387.531V388.153L514.495 385.226ZM512.188 390.46L515.206 393.3L518.045 390.46H512.188ZM516.09 394.009L519.197 396.76L518.929 391.26L516.09 394.009ZM518.929 397.824L515.47 394.631L512.188 397.824H518.929ZM514.584 393.92L511.566 391.259L511.656 393.033V393.299V395.162V395.339L511.745 396.671L514.584 393.92ZM512.632 399.51L515.738 402.083L518.31 399.51H512.632ZM516.623 402.972L519.64 405.456L519.374 400.131L516.623 402.972ZM519.462 406.785L515.913 403.68L512.808 406.785H519.462ZM514.938 402.972L511.745 400.309L511.922 401.641L512.01 405.899L514.938 402.972ZM512.453 408.474L515.647 411.31L518.486 408.474H512.453ZM516.623 412.019L520.26 415.215L519.817 408.827L516.623 412.019ZM519.196 415.746L515.913 412.907L513.074 415.746H519.196ZM514.938 412.019L512.098 409.713V410.334L512.187 410.776V412.551V413.083L512.277 414.768L514.938 412.019ZM513.251 417.43L516.268 420.004L518.929 417.43H513.251ZM517.243 420.892L520.883 423.909L520.526 417.608L517.243 420.892ZM520.083 424.706L516.534 421.69L513.427 424.706H520.083ZM515.559 420.892L512.453 418.231L512.542 419.385V420.093L512.632 423.82L515.559 420.892ZM513.783 426.393L517.243 429.143L519.728 426.393H513.783ZM518.221 429.852L521.416 432.602L520.969 426.835L518.221 429.852ZM520.969 433.667L517.331 430.739L514.495 433.667H520.969ZM516.356 429.941L512.807 427.012C512.895 429.231 513.074 431.36 513.162 433.401L516.356 429.941ZM514.049 435.443L517.42 438.012L519.994 435.443H514.049ZM518.398 438.814L522.3 441.921C522.034 439.7 521.858 437.659 521.77 435.443H521.68L518.398 438.814ZM521.326 442.628L517.509 439.611L514.762 442.628H521.326ZM516.623 438.903L513.34 436.24C513.428 438.193 513.606 440.143 513.696 442.01L516.623 438.903ZM515.559 444.314L518.487 446.709L520.704 444.314H515.559ZM519.462 447.507L523.01 450.347C522.834 448.308 522.568 446.355 522.479 444.314H522.391L519.462 447.507ZM522.834 451.679L518.575 448.308L515.469 451.679H522.834ZM517.685 447.595L513.871 444.403C513.96 446.71 514.225 448.93 514.406 451.055L517.685 447.595ZM515.382 453.364L519.108 456.381L522.036 453.364H515.382ZM520.083 457.089L523.985 460.283C523.718 458.155 523.543 455.937 523.276 453.806L520.083 457.089ZM522.035 460.283L519.374 457.979L517.155 460.283H522.035ZM518.398 457.267L514.761 454.34C514.938 456.381 515.115 458.423 515.469 460.283L518.398 457.267ZM516.002 461.972L520.348 465.52L523.631 461.972H516.002ZM521.326 466.227L524.964 469.156C524.787 467.203 524.432 465.164 524.252 463.122L521.326 466.227ZM524.964 470.663L520.526 467.114L517.244 470.574L517.332 470.663H524.964ZM519.55 466.317L515.913 463.3C516.18 465.519 516.534 467.467 516.888 469.155L519.55 466.317ZM490.271 495.594H500.21L496.04 492.046L490.271 495.594ZM500.385 487.608L496.04 490.36L492.934 487.608H500.385ZM497.103 491.338L502.872 487.609H503.67L502.606 495.594H502.253L497.103 491.338ZM524.875 491.691L520.703 495.593H531.618L524.875 491.691ZM520.348 487.608L524.787 490.181L527.535 487.608H520.348ZM523.719 491.068L517.509 487.608L518.842 495.593L523.719 491.068ZM485.481 509.612H499.234L493.731 504.2L485.481 509.612ZM500.918 497.28L493.731 501.984L489.031 497.28H500.918ZM495.153 503.314L502.073 498.879L500.474 508.726L495.153 503.314ZM527.804 504.021L522.214 509.612H536.939L527.804 504.021ZM520.525 497.28L527.803 501.805L532.326 497.28H520.525ZM526.47 503.135L519.197 498.612L520.704 508.105L520.793 508.816L526.47 503.135ZM530.997 518.663L525.14 524.43H540.488L530.997 518.663ZM522.479 511.299L530.91 516.356L536.142 511.299H522.479ZM529.398 517.865L521.504 513.072L523.189 523.807L529.398 517.865ZM480.247 524.431H495.773L489.74 518.664L480.247 524.431ZM498.26 511.299L489.917 516.356L484.596 511.299H498.26ZM491.339 517.865L499.855 512.806L498.083 524.252L491.339 517.865ZM526.47 541.376V544.126C527.091 544.393 527.716 544.658 528.247 544.836L526.47 541.376ZM525.762 543.858V539.956L524.61 537.738V543.416L525.762 543.858ZM523.809 543.237V536.318L523.1 534.899H522.657V542.794L523.809 543.237ZM521.858 542.527V534.899H520.792V542.262L521.858 542.527ZM519.994 542.173V534.899H518.842V541.819L519.994 542.173ZM518.044 541.73V534.899H516.888V541.554L518.044 541.73ZM516.18 541.376V534.899H515.027V541.198L516.18 541.376ZM514.318 541.109V534.899H513.163V541.022L514.318 541.109ZM512.453 541.022V534.899H511.303V540.933L512.453 541.022ZM510.501 540.934V534.899H509.348V540.933L510.501 540.934ZM508.551 540.934V534.899H507.484V540.933L508.551 540.934ZM506.686 540.934V534.899H505.533V541.022L506.686 540.934ZM504.736 541.109V534.899H503.581V541.198L504.736 541.109ZM502.872 541.288V534.899H501.719V541.376L502.872 541.288ZM501.01 541.642V534.899H499.855V541.819L501.01 541.642ZM499.145 541.909V534.899H497.992V542.262L499.145 541.909ZM497.193 542.44V534.899H496.393L496.039 535.52V542.793L497.193 542.44ZM495.243 542.973V537.027L494.176 539.247V543.328L495.243 542.973ZM552.644 584.139L557.256 578.285L547.319 573.847L552.644 584.139ZM558.942 576.331L563.465 570.743H546.521L558.942 576.331ZM565.154 572.428L561.252 577.398L569.678 581.034L565.154 572.428ZM559.563 579.348L554.153 586.179H572.252L571.454 584.582L559.563 579.348ZM544.306 568.079L549.45 564.444L540.935 561.426L544.306 568.079ZM551.491 563.11L556.281 559.829H542.619L551.491 563.11ZM558.854 560.183L553.619 563.822L562.314 566.927L558.854 560.183ZM551.491 565.241L546.079 569.055H561.96L551.491 565.241ZM540.935 558.143H555.926L546.079 554.594L540.935 558.143ZM538.804 557.436L543.948 553.884L535.344 550.781L538.804 557.436ZM546.079 552.377L551.137 548.917H536.407L546.079 552.377ZM553.264 549.625L548.21 553.174L556.725 556.281L553.264 549.625ZM533.568 547.318H552.112L550.423 544.035H531.883L533.568 547.318ZM466.674 584.317L461.972 578.284L472.175 573.846L466.674 584.317ZM460.284 576.331L455.849 570.743H472.794L460.284 576.331ZM454.251 572.518L457.978 577.398L449.903 580.947L454.251 572.518ZM459.665 579.348L465.166 586.179H447.242L448.04 584.496L459.665 579.348ZM475.103 568.169L469.867 564.444L478.563 561.338L475.103 568.169ZM467.736 563.11L463.035 559.829H476.699L467.736 563.11ZM460.64 560.272L465.699 563.822L457.182 566.927L460.64 560.272ZM467.736 565.241L473.237 569.055H457.267L467.736 565.241ZM478.386 558.143H463.389L473.238 554.594L478.386 558.143ZM549.538 542.351H530.997L527.181 534.899H545.725L549.538 542.351ZM480.512 557.524L475.281 553.883L484.151 550.78L480.512 557.524ZM473.237 552.377L468.182 548.917H482.82L473.237 552.377ZM466.053 549.714L471.109 553.174L462.682 556.192L466.053 549.714ZM485.926 547.318H467.294L468.98 544.035H487.611L485.926 547.318ZM488.411 542.351H469.866L473.769 534.899H492.313L488.411 542.351ZM504.913 492.491H516.534L521.416 524.43H499.854L502.339 508.104L504.913 492.491ZM516.18 490.803H505.091L505.622 487.609H515.647L516.18 490.803ZM493.377 543.591V540.664L491.429 544.393C492.048 544.035 492.669 543.858 493.377 543.591ZM532.149 552.288L531.175 550.424C524.697 546.609 517.242 544.483 509.171 544.483C501.806 544.483 494.799 546.343 488.765 549.626L487.878 551.403C494.175 547.853 501.451 545.722 509.171 545.722C517.685 545.722 525.407 548.118 532.149 552.288Z" fill="#0089D1"/>
<path fill-rule="evenodd" clip-rule="evenodd" d="M346.102 516.799V523.098H346.9V524.253H346.634C369.256 538.538 356.57 542.973 359.231 545.812C354.885 545.722 350.537 545.722 346.102 545.812H332.792C334.478 542.706 321.349 538.625 344.77 524.253H344.503V523.098H345.303V517.154C345.126 517.154 344.949 517.154 344.77 517.154C343.794 517.154 342.908 516.533 342.552 515.557C342.996 516.002 343.529 516.178 344.15 516.178C345.48 516.178 346.634 515.114 346.634 513.782C346.634 513.514 346.545 513.161 346.457 512.985C346.988 513.427 347.254 514.047 347.254 514.671C347.254 515.557 346.81 516.355 346.102 516.799ZM301.918 551.312C302.183 550.781 300.055 550.157 303.957 547.763C307.684 550.157 305.644 550.87 306.087 551.312C304.667 551.312 303.338 551.312 301.918 551.312ZM301.741 555.393H305.998V553.084H301.741V555.393ZM302.539 554.862H303.338V553.528H302.539V554.862ZM304.49 554.862H305.2V553.528H304.49V554.862ZM303.515 554.862H304.224V553.528H303.515V554.862ZM301.207 552.82H306.621V552.377H301.207V552.82ZM301.207 552.023H306.621V551.578H301.207V552.023ZM301.207 556.101H306.621V555.747H301.207V556.101ZM301.207 556.634H306.621V556.28H301.207V556.634ZM301.652 556.723H306.087V567.726H301.652V556.723ZM306.087 568.437V577.93H301.652V568.437H306.087ZM306.087 578.638V584.496H311.321V557.347L320.105 555.571V584.497H320.459V550.782H321.614V550.425H331.906V547.319H359.587V549.893V550.424H370.232V550.781H371.12V584.496H371.652V555.126L380.169 557.524V584.496H385.936V578.638H390.283V584.496H398.179V575.002H405.278V584.496H414.325V586.889H277.342V584.496H286.658V575.002H293.844V584.496H301.652V578.638H306.087ZM293.489 530.549C293.045 529.753 296.506 528.778 290.206 524.964C284.085 528.688 287.456 529.841 286.746 530.549C288.964 530.549 291.271 530.549 293.489 530.549ZM293.668 537.204H286.835V533.476H293.668V537.204ZM292.424 536.407H291.271V534.278H292.424V536.407ZM289.23 536.407H288.077V534.278H289.23V536.407ZM290.828 536.407H289.674V534.278H290.828V536.407ZM294.73 533.301H285.859V532.326H294.73V533.301ZM294.73 531.883H285.859V530.997H294.73V531.883ZM294.73 538.359H285.859V537.473H294.73V538.359ZM294.73 539.246H285.859V538.625H294.73V539.246ZM414.325 592.476H277.342V587.688H414.325V592.476ZM293.845 539.424H286.659V557.255H293.845V539.424ZM398.447 530.549C398.978 529.753 395.43 528.778 401.818 524.964C407.937 528.688 404.567 529.841 405.278 530.549C402.972 530.549 400.752 530.549 398.447 530.549ZM405.19 537.204V533.476H406.166V532.326H397.292V533.476H398.269V537.204H397.292V538.27V538.359V539.423H398.179V557.254H405.278V539.423H406.166V538.359V538.27V537.204H405.19ZM399.6 536.407H400.752V534.278H399.6V536.407ZM402.706 536.407H403.946V534.278H402.706V536.407ZM401.195 536.407H402.351V534.278H401.195V536.407ZM397.292 532.147H406.166V530.997H397.292V532.147ZM405.278 558.411V573.757H398.179V558.411H405.278ZM333.592 584.496H357.99V552.288H333.592V584.496ZM390.107 551.312C389.841 550.781 391.969 550.157 388.067 547.763C384.251 550.157 386.38 550.87 385.938 551.312C387.355 551.312 388.686 551.312 390.107 551.312ZM390.284 555.393H386.026V553.084H390.284V555.393ZM389.396 554.862H388.686V553.528H389.396V554.862ZM387.533 554.862H386.825V553.528H387.533V554.862ZM388.421 554.862H387.711V553.528H388.421V554.862ZM390.815 552.909H385.405V552.377H390.815V552.909ZM390.815 552.023H385.405V551.578H390.815V552.023ZM390.815 556.101H385.405V555.659H390.815V556.101ZM390.815 556.723H390.284V567.726H385.937V556.723H385.405V556.281H390.815V556.723ZM385.937 568.437V577.93H390.284V568.437H385.937ZM286.659 558.411V573.757H293.845V558.411H286.659ZM317.71 575.267V581.832L313.187 581.921V575.799C313.187 574.646 315.315 572.782 315.404 572.782C315.492 572.782 317.71 574.114 317.71 575.267ZM317.71 564.266V570.743L313.187 571.275V564.797C313.187 563.553 315.315 561.692 315.404 561.692C315.492 561.603 317.71 562.934 317.71 564.266ZM374.225 575.267V581.832L378.75 581.921V575.799C378.75 574.646 376.533 572.782 376.445 572.782C376.355 572.782 374.225 574.114 374.225 575.267ZM374.225 564.266V570.743L378.75 571.275V564.797C378.75 563.553 376.533 561.692 376.445 561.692C376.355 561.603 374.225 562.934 374.225 564.266ZM360.916 549.893C361.451 548.917 357.19 547.764 364.999 543.06H364.911H364.645V542.706H364.911V541.109C364.823 541.109 364.733 541.109 364.645 541.109C364.378 541.109 364.023 540.843 363.934 540.575C364.023 540.664 364.289 540.753 364.469 540.753C364.911 540.753 365.265 540.399 365.265 540.042C365.265 539.956 365.265 539.867 365.178 539.778C365.355 539.867 365.443 540.042 365.443 540.309C365.443 540.575 365.355 540.752 365.178 540.933V542.705H365.355V543.059H365.178H365C372.452 547.587 368.549 549.005 369.258 549.892L360.916 549.893ZM348.053 565.684V570.743H353.2V565.508C353.2 562.492 346.191 558.411 345.835 558.411C345.48 558.411 338.471 562.492 338.471 565.508V570.743H343.529V565.684C343.529 564.797 345.658 563.553 345.835 563.553C345.922 563.554 348.053 564.798 348.053 565.684ZM348.053 576.95V581.921H343.528V576.95C343.528 575.974 345.657 574.735 345.834 574.735C345.922 574.735 348.053 575.975 348.053 576.95ZM353.2 572.518H338.471V581.921H336.343V554.951H355.24V581.921H353.2V572.518ZM324.631 566.837H326.406V570.208H324.631V566.837ZM324.631 578.548H326.406V581.921H324.631V578.548ZM365.353 578.548H367.127V581.921H365.353V578.548ZM365.353 566.837H367.127V570.208H365.353V566.837ZM323.034 552.553H324.631V554.951H323.034V552.553ZM367.394 552.553H369.079V554.951H367.394V552.553ZM364.732 552.553H366.329V554.951H364.732V552.553ZM361.981 552.553H363.579V554.951H361.981V552.553ZM328.534 552.553H330.132V554.951H328.534V552.553ZM325.784 552.553H327.381V554.951H325.784V552.553ZM362.959 572.25H365.441C364.91 572.518 364.377 572.96 364.111 573.136C363.579 573.579 362.87 574.381 362.87 575.178V582.276H369.702V575.178C369.702 574.381 368.903 573.579 368.37 573.136C368.193 572.96 367.571 572.518 367.039 572.25H369.702V571.542H362.959V572.25ZM322.146 560.183H325.163C324.631 560.451 323.655 561.249 323.389 561.427C322.855 561.871 322.057 562.667 322.057 563.467V570.563H328.889V563.467C328.889 562.667 328.091 561.871 327.558 561.427C327.292 561.16 326.406 560.45 325.784 560.183H328.89V559.475H322.147V560.183H322.146ZM322.146 572.25H324.719C324.186 572.518 323.566 572.96 323.389 573.136C322.855 573.579 322.057 574.381 322.057 575.178V582.276H328.889V575.178C328.889 574.381 328.18 573.579 327.558 573.136C327.381 572.96 326.849 572.518 326.317 572.25H328.89V571.542H322.147V572.25H322.146ZM362.781 560.183H365.975C365.353 560.451 364.377 561.16 364.199 561.427C363.579 561.871 362.87 562.667 362.87 563.467V570.563H369.702V563.467C369.702 562.667 368.903 561.871 368.37 561.427C368.104 561.249 367.128 560.45 366.596 560.183H369.435V559.475H362.781V560.183ZM326.936 539.778C327.115 539.867 327.203 540.042 327.203 540.309C327.203 540.575 327.115 540.752 326.936 540.933V542.705H327.203V543.059H326.936H326.759H326.671H326.405V542.705H326.671V541.108C326.582 541.108 326.493 541.108 326.405 541.108C326.138 541.108 325.872 540.842 325.694 540.574C325.873 540.663 326.049 540.752 326.227 540.752C326.671 540.752 327.025 540.398 327.025 540.041C327.026 539.956 327.026 539.867 326.936 539.778ZM326.76 543.059C334.212 547.587 330.398 549.005 331.018 549.892H322.678C323.3 548.917 318.952 547.764 326.76 543.059Z" fill="#0089D1"/>
<path fill-rule="evenodd" clip-rule="evenodd" d="M444.314 453.72H442.72V446.8V442.364L442.541 442.54L442.274 442.364V446L441.92 445.557L441.566 446.179L441.21 446.8L440.767 446.179L440.412 445.557L439.97 446.179L439.615 446.8L439.173 446.179L438.818 445.557L438.375 446.179L438.018 446.8L437.664 446.179L437.22 445.557L436.865 446.179L436.423 446.8L436.069 446.179L435.626 445.557L435.273 446.179L434.916 446.8L434.47 446.179L434.116 445.557L433.674 446.179L433.319 446.8L432.875 446.179L432.523 445.557L432.079 446.179L431.725 446.8L431.366 446.179L430.924 445.557L430.57 446.179L430.128 446.8L429.774 446.179L429.33 445.557L428.976 446.179L428.622 446.8L428.176 446.179L427.821 445.557L427.379 446.179L427.025 446.8L426.582 446.179L426.229 445.557L425.784 446.179L425.43 446.8L425.076 446.179L424.631 445.557L424.277 446.179L423.834 446.8L423.48 446.179L423.036 445.557L422.683 446.179L422.328 446.8L421.886 446.179L421.532 445.557L421.086 446.179L420.731 446.8L420.288 446.179L419.933 445.557L419.491 446.179L419.136 446.8L418.783 446.179L418.339 445.557L417.982 446.179L417.539 446.8L417.185 446.179L416.741 445.557L416.386 446.179L416.033 446.8L415.59 446.179L415.237 445.557L414.878 446.089V442.364L414.613 442.54L414.345 442.364V446.8V453.72H412.839V449.285L412.663 449.55L412.396 449.285V453.72V486.102H444.777V453.72V449.285L444.51 449.55L444.332 449.285V453.72H444.314ZM445.292 592.477H410.955V571.986H445.292V592.477ZM441.92 570.388V551.225H440.5V570.388H439.435V551.225H437.926V570.388H436.862V551.225H435.444V570.388H434.29V551.225H432.87V570.388H431.72V551.225H430.298V570.388H429.146V551.225H427.725V570.388H426.573V551.225H425.154V570.388H424.089V551.225H422.581V570.388H421.517V551.225H420.096V570.388H418.942V551.225H417.522V570.388H416.369V551.225H414.951V570.388H413.797V530.729H443.075V570.388H441.92ZM440.5 550.158H441.92V531.617H440.5V550.158ZM414.949 550.158H416.367V531.617H414.949V550.158ZM417.521 550.158H418.941V531.617H417.521V550.158ZM420.095 550.158H421.516V531.617H420.095V550.158ZM422.579 550.158H424.087V531.617H422.579V550.158ZM425.152 550.158H426.571V531.617H425.152V550.158ZM427.724 550.158H429.145V531.617H427.724V550.158ZM430.297 550.158H431.719V531.617H430.297V550.158ZM432.869 550.158H434.289V531.617H432.869V550.158ZM435.443 550.158H436.861V531.617H435.443V550.158ZM437.926 550.158H439.435V531.617H437.926V550.158ZM415.659 441.39L414.593 440.499L413.618 441.39L414.593 442.454L415.659 441.39ZM443.516 441.39L442.541 440.499L441.565 441.39L442.541 442.454L443.516 441.39ZM445.47 448.309L444.491 447.421L443.605 448.309L444.491 449.373L445.47 448.309ZM413.528 448.309L412.643 447.421L411.667 448.309L412.643 449.373L413.528 448.309ZM414.325 440.588V439.967H414.857V440.588L414.592 440.322L414.325 440.588ZM442.274 440.588V439.967H442.719V440.588L442.54 440.322L442.274 440.588ZM412.377 447.508V446.8H412.819V447.421L412.643 447.242L412.377 447.508ZM444.314 447.421V446.8H444.758V447.508L444.491 447.242L444.314 447.421ZM421.603 435.444L417.343 446L417.432 446.089L417.521 446.267L418.322 445.114L418.941 446.09L419.12 446.268L419.298 446.09L419.917 445.114L420.716 446.356L420.892 446.089L421.517 445.027L422.048 446.089L422.314 446.356L423.023 445.114L423.732 446.09L423.822 446.268L423.999 446.09L424.62 445.114L425.244 446.09L425.42 446.268L425.599 446.09L426.22 445.114L426.839 446.09L427.017 446.357L427.193 446.09L427.813 445.028L428.349 446.09L428.615 446.357L428.705 446.09L429.324 445.114L430.034 446.09L430.123 446.268L430.92 445.115L431.544 446.091L431.722 446.269L431.899 446.091L432.52 445.115L433.317 446.357L433.494 446.09L434.115 445.028L434.735 446.09L434.916 446.357L435.625 445.115L436.335 446.091L436.423 446.269L437.221 445.116L437.841 446.092L438.02 446.27L438.2 446.092L438.82 445.116L439.618 446.269L439.707 446.091L439.796 446.002L435.537 435.446H421.603V435.444ZM423.021 442.629L422.136 441.119L421.869 440.765L420.714 442.628L421.069 442.806L421.87 441.477L422.579 442.806L423.021 442.629ZM429.678 439.08L428.79 437.481L428.612 437.127L427.457 439.079L427.81 439.258L428.612 437.924L429.321 439.258L429.678 439.08ZM434.111 439.08L433.136 437.481L432.958 437.127L431.806 439.079L432.161 439.258L432.958 437.924L433.668 439.258L434.111 439.08ZM436.331 442.629L435.355 441.119L435.178 440.765L434.111 442.628L434.377 442.806L435.179 441.477L435.975 442.806L436.331 442.629ZM431.807 442.629L431.007 441.119L430.74 440.765L429.588 442.628L429.942 442.806L430.741 441.477L431.542 442.806L431.807 442.629ZM427.368 442.629L426.571 441.119L426.305 440.765L425.152 442.628L425.507 442.806L426.306 441.477L427.015 442.806L427.368 442.629ZM425.685 439.08L424.883 437.481L424.617 437.127L423.465 439.079L423.819 439.258L424.617 437.924L425.329 439.258L425.685 439.08ZM418.852 448.397H415.659V452.744H418.852V448.397ZM441.031 448.397H437.926V452.744H441.031V448.397ZM436.685 448.397H433.401V452.744H436.685V448.397ZM432.251 448.397H428.967V452.744H432.251V448.397ZM427.81 448.397H424.529V452.744H427.81V448.397ZM423.288 448.397H420.095V452.744H423.288V448.397ZM429.852 408.56H427.28V406.697H429.852V408.56ZM421.516 422.846L420.537 421.87L419.561 422.846L420.537 423.821L421.516 422.846ZM437.571 422.846L436.596 421.87L435.62 422.846L436.596 423.821L437.571 422.846ZM436.064 426.659L435.71 427.369L435.355 428.079H435.268L434.999 427.369L434.555 426.659L434.111 427.369L433.844 428.079L433.49 427.369L433.048 426.659L432.694 427.369L432.34 428.079L431.985 427.369L431.631 426.659L431.184 427.369L430.83 428.079L430.476 427.369L430.122 426.659L429.68 427.369L429.412 428.079H429.323L428.969 427.369L428.615 426.659L428.169 427.369L427.903 428.079H427.813L427.46 427.369L427.105 426.659L426.663 427.369L426.395 428.079H426.308L425.953 427.369L425.599 426.659L425.155 427.369L424.887 428.079H424.802L424.444 427.369L424.001 426.659L423.646 427.369L423.292 428.079L423.025 427.369L422.583 426.659L422.141 427.369L421.874 428.079H421.786L421.519 427.369L421.073 426.659L420.807 427.101V423.996L420.54 424.175L420.274 423.996V428.079V434.912H436.864V428.079V423.996L436.599 424.175L436.333 423.996V427.101L436.064 426.659ZM428.612 405.633C428.612 405.9 428.523 406.165 428.523 406.433H428.612C428.612 406.165 428.612 405.899 428.612 405.633ZM428.259 408.828C427.281 414.95 424.441 420.36 422.49 426.127V426.038L423.2 427.28L423.288 427.456L423.997 426.038L424.706 427.28L424.799 427.456L424.884 427.28L425.597 426.038L426.306 427.456L426.393 427.28L427.103 426.038L427.811 427.456L427.901 427.28L428.613 426.038L429.234 427.28L429.322 427.456L429.411 427.28L430.121 426.038L430.829 427.456L430.918 427.28L431.631 426.038L432.34 427.456L432.428 427.28L433.138 426.038L433.67 427.28L433.846 427.456L433.935 427.28L434.557 426.038C434.733 425.772 429.146 411.31 428.791 408.828H428.259ZM429.678 417.166L428.79 415.747L428.612 415.305L427.457 417.166L427.81 417.431L428.612 416.102L429.321 417.431L429.678 417.166ZM426.306 424.798L425.507 423.199L425.242 422.846L424.087 424.798L424.441 424.977L425.243 423.554L425.951 424.977L426.306 424.798ZM429.678 424.798L428.79 423.199L428.612 422.846L427.457 424.798L427.81 424.977L428.612 423.554L429.321 424.977L429.678 424.798ZM433.048 424.798L432.162 423.199L431.895 422.846L430.74 424.798L431.182 424.977L431.895 423.554L432.693 424.977L433.048 424.798ZM427.724 421.157L426.837 419.56L426.571 419.207L425.507 421.157L425.861 421.336L426.571 419.918L427.368 421.336L427.724 421.157ZM431.63 421.157L430.74 419.56L430.562 419.207L429.41 421.157L429.678 421.336L430.563 419.918L431.272 421.336L431.63 421.157ZM420.271 421.781V421.157H420.803V421.781L420.536 421.516L420.271 421.781ZM436.331 421.781V421.157H436.861V421.781L436.596 421.516L436.331 421.781ZM423.643 429.411H421.158V433.847H423.643V429.411ZM435.975 429.411H433.491V433.847H435.975V429.411ZM432.869 429.411H430.385V433.847H432.869V429.411ZM429.852 429.411H427.368V433.847H429.852V429.411ZM426.748 429.411H424.264V433.847H426.748V429.411ZM440.678 528.513H442.099V508.285H440.678V528.513ZM415.038 528.513H416.456V508.285H415.038V528.513ZM417.609 528.513H419.03V508.285H417.609V528.513ZM420.184 528.513H421.604V508.285H420.184V528.513ZM422.757 528.513H424.175V508.285H422.757V528.513ZM425.33 528.513H426.748V508.285H425.33V528.513ZM427.81 528.513H429.321V508.285H427.81V528.513ZM430.385 528.513H431.807V508.285H430.385V528.513ZM432.959 528.513H434.377V508.285H432.959V528.513ZM435.532 528.513H436.95V508.285H435.532V528.513ZM438.105 528.513H439.524V508.285H438.105V528.513ZM440.678 507.217H442.099V488.587H440.678V507.217ZM415.038 507.217H416.456V488.587H415.038V507.217ZM417.609 507.217H419.03V488.587H417.609V507.217ZM420.184 507.217H421.604V488.587H420.184V507.217ZM422.757 507.217H424.175V488.587H422.757V507.217ZM425.33 507.217H426.748V488.587H425.33V507.217ZM427.81 507.217H429.321V488.587H427.81V507.217ZM430.385 507.217H431.807V488.587H430.385V507.217ZM432.959 507.217H434.377V488.587H432.959V507.217ZM435.532 507.217H436.95V488.587H435.532V507.217ZM438.105 507.217H439.524V488.587H438.105V507.217ZM443.162 487.79H413.973V529.31H443.162V487.79ZM417.697 483.353H416.013V485.041H417.697V483.353ZM441.031 483.353H439.347V485.041H441.031V483.353ZM438.903 483.353H437.217V485.041H438.903V483.353ZM436.773 483.353H435.089V485.041H436.773V483.353ZM434.644 483.353H432.959V485.041H434.644V483.353ZM432.517 483.353H430.828V485.041H432.517V483.353ZM430.385 483.353H428.702V485.041H430.385V483.353ZM428.259 483.353H426.571V485.041H428.259V483.353ZM426.128 483.353H424.44V485.041H426.128V483.353ZM423.997 483.353H422.4V485.041H423.997V483.353ZM421.958 483.353H420.271V485.041H421.958V483.353ZM419.828 483.353H418.142V485.041H419.828V483.353ZM428.612 470.929C428.435 470.929 428.258 470.843 428.081 470.843L427.457 471.466C427.368 471.82 427.368 472.085 427.19 472.263C427.102 472.352 426.925 472.352 426.748 472.263C426.571 471.998 426.571 471.998 426.306 471.731C426.128 471.642 426.128 471.466 426.306 471.289C426.482 471.108 426.748 471.019 427.015 471.019L427.724 470.401C427.547 470.311 427.547 470.045 427.547 469.869C427.547 469.78 427.547 469.69 427.547 469.601L421.157 462.77C421.157 462.77 421.157 462.681 421.157 462.593H421.335C421.335 462.506 421.424 462.506 421.424 462.593L428.166 468.893C428.259 468.805 428.436 468.805 428.612 468.805C428.79 468.805 429.056 468.893 429.233 468.982L430.297 468.007C430.208 468.007 430.12 467.918 430.12 467.826C429.941 467.737 429.941 467.47 430.12 467.384C430.297 467.205 430.74 467.116 431.183 467.116L431.36 466.94V466.495H431.984V467.027H431.63L431.36 467.295C431.36 467.737 431.36 468.183 431.183 468.36C431.007 468.45 430.741 468.45 430.653 468.36C430.563 468.271 430.563 468.271 430.563 468.271L429.499 469.335C429.588 469.511 429.678 469.689 429.678 469.867C429.678 470.043 429.588 470.133 429.588 470.221C429.853 470.664 430.385 471.018 430.917 471.197C430.917 471.197 431.007 471.197 431.007 471.289C431.007 471.378 431.007 471.467 430.917 471.467C430.74 471.467 430.74 471.554 430.74 471.643C430.652 471.643 430.652 471.732 430.652 471.821C430.652 471.911 430.562 472 430.562 472C430.384 472 430.296 472 430.296 472.087C430.207 472.087 430.119 472.176 430.119 472.265H430.03C429.94 472.354 429.94 472.265 429.851 472.265C429.676 471.644 429.32 471.29 428.789 470.931C428.79 470.929 428.702 470.929 428.612 470.929ZM428.347 460.638C428.166 460.638 427.901 460.638 427.724 460.638L427.636 459.488H427.547C427.811 459.488 428.081 459.488 428.347 459.488V460.638ZM427.19 460.728C426.925 460.817 426.66 460.817 426.392 460.906L426.127 459.754C426.392 459.664 426.747 459.575 427.102 459.575L427.19 460.728ZM425.95 460.992C425.772 461.082 425.596 461.171 425.33 461.171L424.884 460.107C425.152 460.017 425.418 459.93 425.686 459.842L425.95 460.992ZM424.976 461.351C424.706 461.53 424.441 461.617 424.175 461.706L423.555 460.728C423.821 460.55 424.175 460.374 424.53 460.285L424.976 461.351ZM423.73 461.973C423.554 462.148 423.376 462.238 423.2 462.327L422.49 461.351C422.757 461.263 422.933 461.082 423.2 460.906L423.73 461.973ZM422.846 462.592C422.668 462.769 422.579 462.859 422.401 462.947L422.58 463.123C422.669 463.034 422.847 462.858 422.934 462.769H423.022L423.112 462.68C423.377 462.505 423.555 462.327 423.821 462.148H423.909L425.773 465.432C425.597 465.521 425.419 465.608 425.331 465.698L425.508 465.876C426.307 465.166 427.369 464.811 428.613 464.811C429.853 464.811 431.096 465.344 431.984 466.14H432.339C432.072 465.875 431.807 465.608 431.449 465.432L433.224 462.148H433.313C433.668 462.416 433.933 462.592 434.289 462.859L434.377 462.948C434.556 463.124 434.731 463.302 435 463.477C435.179 463.745 435.443 464.01 435.711 464.277V464.366L435.799 464.453C435.975 464.723 436.153 464.9 436.241 465.166L433.048 467.027C432.869 466.762 432.605 466.408 432.427 466.14V466.583C433.137 467.383 433.669 468.625 433.669 469.867C433.669 471.288 433.048 472.527 432.162 473.503C431.183 474.391 429.941 475.015 428.612 475.015C427.19 475.015 425.95 474.391 424.975 473.503C423.997 472.527 423.465 471.288 423.465 469.867C423.465 468.714 423.819 467.647 424.529 466.849L424.35 466.672C424.263 466.761 424.174 466.939 424.086 467.025L420.89 465.164C421.069 464.809 421.334 464.451 421.603 464.186V464.096C421.692 464.096 421.692 464.008 421.782 463.921L421.603 463.742C421.515 463.832 421.515 463.921 421.423 464.008L420.447 463.211C420.626 463.121 420.714 463.032 420.802 462.857V462.767C420.802 462.767 420.802 462.678 420.802 462.59V462.413L421.068 462.324C421.156 462.145 421.334 462.145 421.514 462.145C421.691 461.97 421.868 461.881 422.135 461.703L422.846 462.592ZM421.335 464.188H421.247L420.448 463.477L421.335 464.098V464.188ZM421.157 464.365C420.98 464.546 420.803 464.81 420.715 465.076L420.184 464.722L419.652 464.452C419.829 464.187 420.006 463.834 420.184 463.655H420.272L421.157 464.365ZM420.448 465.432C420.359 465.608 420.271 465.786 420.183 466.052L419.03 465.521C419.119 465.344 419.297 465.077 419.384 464.9L420.448 465.432ZM419.916 466.494C419.828 466.762 419.739 467.026 419.651 467.294L418.586 466.94H418.497C418.586 466.583 418.765 466.319 418.851 465.965L419.916 466.494ZM419.561 467.736C419.473 467.917 419.473 468.093 419.384 468.359L418.233 468.181C418.321 467.916 418.321 467.647 418.41 467.382V467.468L419.561 467.736ZM419.385 468.538L418.321 468.449V468.359L419.385 468.538ZM419.385 468.804C419.297 469.068 419.297 469.335 419.297 469.6H418.143C418.143 469.246 418.143 468.981 418.234 468.625L419.385 468.804ZM419.297 470.133C419.297 470.31 419.297 470.575 419.385 470.754L418.143 470.843C418.143 470.575 418.143 470.4 418.143 470.133H419.297ZM419.385 471.196C419.474 471.466 419.474 471.819 419.562 472.085L418.411 472.352C418.322 471.998 418.234 471.731 418.234 471.377L419.385 471.196ZM419.651 472.527C419.739 472.706 419.828 472.884 419.916 473.059L418.766 473.502V473.592C418.677 473.326 418.587 473.059 418.498 472.794H418.587L419.651 472.527ZM420.006 473.327L419.03 473.769V473.68L420.006 473.327ZM420.095 473.503C420.184 473.77 420.272 474.035 420.448 474.303L419.385 474.926C419.208 474.658 419.119 474.303 418.941 474.035L419.031 473.945L420.095 473.503ZM420.715 474.748C420.804 474.926 420.891 475.102 421.07 475.19L420.007 475.9C419.917 475.722 419.74 475.545 419.653 475.279L420.715 474.748ZM421.335 475.545C421.516 475.812 421.692 475.99 421.87 476.255L421.069 477.141H420.98C420.803 476.876 420.537 476.609 420.359 476.344L421.335 475.545ZM422.226 476.608C422.401 476.697 422.491 476.876 422.668 476.962L421.958 477.942H421.87C421.692 477.761 421.516 477.584 421.335 477.408L422.226 476.608ZM423.021 477.318C423.288 477.495 423.465 477.584 423.73 477.761L423.2 478.827H423.111C422.845 478.649 422.579 478.473 422.312 478.206L423.021 477.318ZM424.175 478.031C424.351 478.118 424.529 478.207 424.706 478.297L424.264 479.361C423.997 479.272 423.731 479.182 423.555 479.007L424.175 478.031ZM425.152 478.474C425.418 478.561 425.685 478.651 425.95 478.74L425.685 479.893C425.33 479.803 424.975 479.715 424.706 479.626L425.152 478.474ZM426.128 478.828L425.95 479.803H425.861L426.128 478.828ZM426.393 478.918C426.572 478.918 426.837 479.007 427.015 479.007L426.837 480.157C426.571 480.157 426.306 480.068 426.128 480.068L426.393 478.918ZM427.19 479.094H427.28L427.102 480.069L427.19 479.094ZM427.457 479.094C427.724 479.094 428.081 479.182 428.347 479.182V480.336C427.99 480.336 427.636 480.336 427.281 480.247L427.457 479.094ZM428.79 479.182C428.967 479.182 429.233 479.182 429.41 479.094L429.588 480.247V480.336C429.321 480.336 429.057 480.336 428.79 480.336V479.182ZM429.941 479.094C430.208 479.007 430.474 479.007 430.74 478.918L431.007 480.068C430.74 480.157 430.385 480.157 430.031 480.247L429.941 479.094ZM431.007 478.828L431.272 479.803H431.183L431.007 478.828ZM431.183 478.739C431.36 478.739 431.541 478.65 431.807 478.56L432.251 479.626V479.715C431.983 479.803 431.807 479.893 431.541 479.893L431.183 478.739ZM431.983 478.474H432.072L432.426 479.45L431.983 478.474ZM432.251 478.386C432.517 478.297 432.781 478.118 432.959 478.032L433.58 479.007V479.094C433.313 479.182 432.959 479.361 432.693 479.536V479.449L432.251 478.386ZM433.401 477.762C433.58 477.673 433.756 477.584 433.933 477.409L434.643 478.387C434.465 478.562 434.2 478.652 434.022 478.829L433.401 477.762ZM434.289 477.141C434.556 476.963 434.731 476.788 434.912 476.609L435.799 477.409C435.532 477.674 435.269 477.943 435 478.119L434.289 477.141ZM435.269 476.255C435.444 476.076 435.533 475.9 435.622 475.812L436.598 476.52C436.509 476.698 436.332 476.877 436.155 477.051L435.269 476.255ZM435.975 475.369C436.154 475.19 436.332 474.926 436.419 474.658L437.483 475.279C437.307 475.633 437.13 475.9 436.951 476.166H436.862L435.975 475.369ZM436.685 474.303C436.773 474.124 436.861 473.946 436.95 473.77L438.105 474.213C437.925 474.478 437.836 474.658 437.748 474.926H437.66L436.685 474.303ZM437.129 473.327C437.217 473.06 437.394 472.795 437.394 472.527L438.55 472.795H438.639C438.46 473.149 438.372 473.503 438.284 473.77L437.129 473.327ZM437.571 472.085C437.571 471.909 437.661 471.642 437.661 471.466L438.903 471.642C438.815 471.82 438.815 472.085 438.726 472.352L437.571 472.085ZM437.749 471.196L438.815 471.377H438.726L437.749 471.196ZM437.749 470.929C437.837 470.664 437.837 470.4 437.837 470.133H438.992C438.992 470.486 438.992 470.754 438.903 471.108L437.749 470.929ZM437.837 469.6C437.837 469.425 437.837 469.246 437.749 469.068L438.992 468.892C438.992 469.068 438.992 469.335 438.992 469.6H437.837ZM437.749 468.804V468.714L438.815 468.625V468.714L437.749 468.804ZM437.749 468.538C437.661 468.27 437.661 468.006 437.571 467.736L438.726 467.469V467.383C438.815 467.736 438.903 468.093 438.903 468.449L437.749 468.538ZM437.482 467.294C437.393 467.026 437.306 466.85 437.216 466.673L438.371 466.229C438.459 466.495 438.549 466.673 438.549 466.94L437.482 467.294ZM437.129 466.407L438.106 465.965V466.052L437.129 466.407ZM437.04 466.228C436.95 465.964 436.861 465.697 436.685 465.431L437.661 464.899H437.749C437.926 465.165 438.016 465.52 438.195 465.786L437.04 466.228ZM436.419 465.076C436.331 464.899 436.241 464.722 436.153 464.546L437.04 463.834C437.217 464.01 437.394 464.276 437.482 464.452L436.419 465.076ZM435.799 464.098C435.621 463.923 435.444 463.744 435.269 463.477L436.154 462.68C436.332 462.948 436.597 463.213 436.774 463.39V463.477L435.799 464.098ZM434.912 463.213C434.823 463.034 434.644 462.859 434.466 462.769L435.179 461.795C435.356 461.973 435.621 462.148 435.799 462.326L434.912 463.213ZM434.289 462.592L435 461.795L434.377 462.592H434.289ZM434.111 462.505C433.844 462.326 433.669 462.148 433.401 461.973L434.022 460.993C434.289 461.172 434.555 461.351 434.823 461.53L434.111 462.505ZM432.959 461.795C432.781 461.616 432.604 461.529 432.427 461.441L432.869 460.375C433.137 460.462 433.313 460.551 433.58 460.729L432.959 461.795ZM431.983 461.263C431.718 461.171 431.449 461.082 431.182 460.992L431.54 459.842C431.806 459.93 432.161 460.107 432.426 460.196L431.983 461.263ZM430.74 460.905C430.562 460.816 430.297 460.816 430.12 460.727L430.297 459.574C430.563 459.663 430.828 459.663 431.007 459.753L430.74 460.905ZM429.941 460.728H429.852L430.031 459.664L429.941 460.728ZM429.678 460.728C429.41 460.638 429.057 460.638 428.79 460.638V459.488C429.144 459.488 429.499 459.488 429.852 459.488L429.678 460.728ZM424.264 461.973C424.53 461.795 424.706 461.705 424.976 461.53H425.064L425.331 461.441C425.598 461.351 425.773 461.263 426.04 461.171H426.129L426.307 461.082H426.483C426.75 460.992 427.016 460.992 427.282 460.905H427.37H427.637H427.725V460.816C427.902 460.816 428.167 460.816 428.348 460.816V464.545C427.548 464.632 426.749 464.81 426.129 465.164L424.264 461.973ZM428.79 460.816C429.057 460.816 429.321 460.816 429.588 460.905H429.678H429.942H430.032C430.298 460.992 430.475 460.992 430.653 461.082H430.741L431.008 461.171H431.097C431.361 461.263 431.631 461.351 431.897 461.441V461.53H431.985C432.074 461.53 432.164 461.617 432.253 461.617L432.341 461.706C432.519 461.706 432.695 461.885 432.871 461.974L431.009 465.166C430.299 464.811 429.59 464.634 428.792 464.547V460.816H428.79ZM436.508 465.607C436.686 465.875 436.774 466.139 436.862 466.407L436.951 466.494C436.951 466.583 436.951 466.673 437.041 466.673V466.762C437.13 467.027 437.218 467.383 437.308 467.737C437.484 468.36 437.573 468.981 437.573 469.689H433.846C433.846 468.892 433.581 468.093 433.315 467.469L436.508 465.607ZM437.571 470.133C437.571 470.4 437.571 470.664 437.482 470.929C437.482 471.288 437.393 471.642 437.306 471.998C437.128 472.795 436.861 473.503 436.507 474.213L433.224 472.352C433.579 471.642 433.756 470.929 433.844 470.133H437.571ZM436.241 474.569C436.153 474.837 435.974 475.101 435.799 475.369L435.621 475.545L435.532 475.634C435.355 475.812 435.268 475.99 435.178 476.076L434.999 476.166L434.911 476.344L434.73 476.433H434.822C434.555 476.609 434.376 476.788 434.199 476.963H434.11V477.051L434.021 477.141C433.755 477.319 433.579 477.409 433.312 477.584L431.448 474.303C431.718 474.124 432.071 473.86 432.338 473.593C432.604 473.327 432.868 473.06 433.047 472.706L436.241 474.569ZM432.869 477.853C432.693 477.942 432.427 478.118 432.162 478.207V478.118L431.983 478.207L431.895 478.297L431.718 478.386C431.54 478.386 431.359 478.474 431.182 478.561H431.095C431.006 478.561 430.827 478.651 430.74 478.651H430.652C430.297 478.74 430.031 478.829 429.677 478.829H429.498C429.232 478.919 429.056 478.919 428.789 478.919V475.191C429.587 475.102 430.296 474.926 431.006 474.57L432.869 477.853ZM428.347 478.918C428.081 478.918 427.811 478.918 427.547 478.828C427.457 478.828 427.368 478.828 427.28 478.828H427.19H427.102C426.836 478.739 426.66 478.739 426.481 478.65C426.039 478.56 425.596 478.385 425.152 478.207H425.063C424.798 478.118 424.529 477.942 424.263 477.853L426.127 474.569C426.836 474.926 427.546 475.101 428.346 475.19L428.347 478.918ZM423.82 477.584C423.642 477.495 423.376 477.318 423.111 477.141H423.2L423.111 477.051L422.845 476.963V476.876H422.756C422.667 476.697 422.489 476.608 422.312 476.433H422.4L422.312 476.344L422.136 476.166L421.957 476.076C421.781 475.9 421.602 475.722 421.423 475.458L421.246 475.19L421.156 475.101C421.068 474.925 420.979 474.747 420.889 474.569H420.802L424.085 472.706C424.349 473.06 424.527 473.327 424.882 473.593C425.15 473.86 425.416 474.124 425.771 474.391L423.82 477.584ZM420.627 474.213C420.448 473.945 420.359 473.681 420.271 473.327H420.183C420.094 473.06 420.005 472.706 419.915 472.44C419.827 472.262 419.827 472.173 419.827 471.998C419.65 471.377 419.56 470.754 419.56 470.133H423.287C423.287 470.929 423.554 471.642 423.907 472.352L420.627 474.213ZM419.561 469.689C419.561 469.425 419.561 469.068 419.651 468.804C419.651 468.625 419.651 468.538 419.651 468.36C419.739 468.182 419.739 467.918 419.828 467.737C419.828 467.558 419.828 467.47 419.916 467.384V467.295C420.006 467.027 420.095 466.763 420.184 466.584L420.272 466.408V466.319C420.272 466.229 420.36 466.229 420.36 466.14C420.449 465.965 420.538 465.787 420.628 465.608L423.909 467.469C423.555 468.182 423.289 468.892 423.289 469.689H419.561ZM440.589 457.801H428.612C435.178 457.801 440.589 463.213 440.589 469.867V457.801ZM431.183 459.842H431.272L431.007 460.906L431.183 459.842ZM435.799 462.592H435.887L435.179 463.39L435.09 463.302L435.799 462.592ZM435.887 477.141L435.799 477.23L435.09 476.433H435.179L435.887 477.141ZM421.335 477.229L421.247 477.14L421.958 476.432H422.047L421.335 477.229ZM425.861 459.842H425.95L426.128 460.906L425.861 459.842ZM436.861 463.655L435.974 464.365V464.276L436.861 463.655ZM424.529 479.449L424.44 479.36L424.883 478.385L424.529 479.449ZM422.137 478.031V477.942L422.846 477.14L422.137 478.031ZM422.4 461.616V461.529L423.021 462.415V462.505L422.4 461.616ZM424.706 460.284L425.152 461.262L425.063 461.35L424.706 460.284ZM428.612 457.801H416.546V469.867C416.546 463.213 421.958 457.801 428.612 457.801ZM416.546 469.867V481.933H428.612C421.958 481.934 416.546 476.52 416.546 469.867ZM428.612 481.933L440.589 481.934V469.868C440.589 476.52 435.179 481.933 428.612 481.933ZM428.612 481.313C422.312 481.313 417.167 476.166 417.167 469.868C417.167 463.656 422.313 458.514 428.612 458.514C434.823 458.514 439.967 463.657 439.967 469.868C439.968 476.166 434.823 481.313 428.612 481.313ZM438.727 480.601C438.196 480.601 437.837 480.248 437.837 479.626C437.837 479.182 438.195 478.828 438.727 478.828C439.171 478.828 439.614 479.182 439.614 479.626C439.613 480.247 439.171 480.601 438.727 480.601ZM438.727 460.728C438.196 460.728 437.837 460.285 437.837 459.842C437.837 459.31 438.195 458.956 438.727 458.956C439.171 458.956 439.614 459.31 439.614 459.842C439.613 460.284 439.171 460.728 438.727 460.728ZM418.587 460.728C418.053 460.728 417.697 460.285 417.697 459.842C417.697 459.31 418.052 458.956 418.587 458.956C419.119 458.956 419.474 459.31 419.474 459.842C419.474 460.284 419.119 460.728 418.587 460.728ZM418.587 480.601C418.053 480.601 417.697 480.248 417.697 479.626C417.697 479.182 418.052 478.828 418.587 478.828C419.119 478.828 419.474 479.182 419.474 479.626C419.474 480.247 419.119 480.601 418.587 480.601ZM440.942 457.443V482.288H416.191V457.443H440.942ZM441.031 454.785H439.347V456.557H441.031V454.785ZM417.697 454.785H416.013V456.557H417.697V454.785ZM419.828 454.785H418.142V456.557H419.828V454.785ZM421.958 454.785H420.271V456.557H421.958V454.785ZM423.997 454.785H422.4V456.557H423.997V454.785ZM426.128 454.785H424.44V456.557H426.128V454.785ZM428.259 454.785H426.571V456.557H428.259V454.785ZM430.385 454.785H428.702V456.557H430.385V454.785ZM432.517 454.785H430.828V456.557H432.517V454.785ZM434.644 454.785H432.959V456.557H434.644V454.785ZM436.773 454.785H435.089V456.557H436.773V454.785ZM438.903 454.785H437.217V456.557H438.903V454.785ZM415.038 484.862H415.393V454.785H415.038V484.862ZM413.263 484.862H413.706V454.785H413.263V484.862ZM414.149 484.862H414.592V454.785H414.149V484.862ZM441.744 484.862H442.274V454.785H441.744V484.862ZM443.516 484.862H443.96V454.785H443.516V484.862ZM442.631 484.862H443.073V454.785H442.631V484.862Z" fill="#0089D1"/>
<path fill-rule="evenodd" clip-rule="evenodd" d="M771.431 482.199V480.955L767.794 479.182V485.305L771.431 482.199ZM691.315 449.194H717.842V456.914H691.315V449.194ZM717.843 458.156V469.956H691.316V458.156H717.843ZM717.843 471.819V493.021H691.316V471.819H717.843ZM698.058 451.591H702.582V452.566H698.058V451.591ZM713.586 461.973V467.383H709.324V461.973C709.324 460.993 710.391 460.196 711.455 460.196C712.696 460.195 713.586 460.992 713.586 461.973ZM706.844 461.973V467.383H702.582V461.973C702.582 460.993 703.472 460.196 704.713 460.196C705.864 460.195 706.844 460.992 706.844 461.973ZM700.012 461.973V467.383H695.75V461.973C695.75 460.993 696.64 460.196 697.881 460.196C699.032 460.195 700.012 460.992 700.012 461.973ZM706.665 477.762H711.19V478.651H706.665V477.762ZM701.074 477.942H705.598V478.828H701.074V477.942ZM704.269 479.094H708.792V480.069H704.269V479.094ZM706.932 480.778H711.455V481.757H706.932V480.778ZM701.607 480.778H706.13V481.757H701.607V480.778ZM698.147 489.829H702.582V490.804H698.147V489.829ZM695.929 488.676H700.454V489.652H695.929V488.676ZM693.712 487.434H698.236V488.323H693.712V487.434ZM710.923 487.167H715.447V488.144H710.923V487.167ZM708.35 450.523H712.873V451.503H708.35V450.523ZM701.253 453.808H705.776V454.786H701.253V453.808ZM656.624 518.22H701.519V553.354H656.624V518.22ZM701.519 554.863V592.477H656.624V554.863H701.519ZM689.629 582.63H697.261V584.23H689.629V582.63ZM682.443 566.571H690.074V568.17H682.443V566.571ZM673.126 566.928H680.759V568.527H673.126V566.928ZM678.45 568.969H686.079V570.564H678.45V568.969ZM682.886 571.808H690.519V573.405H682.886V571.808ZM673.927 571.808H681.468V573.405H673.927V571.808ZM667.894 587.155H675.523V588.753H667.894V587.155ZM664.256 585.115H671.886V586.711H664.256V585.115ZM660.619 582.984H668.248V584.672H660.619V582.984ZM671.087 539.957V549.094H663.901V539.957C663.901 538.272 665.497 536.851 667.539 536.851C669.489 536.851 671.087 538.271 671.087 539.957ZM694.332 539.957V549.094H687.147V539.957C687.147 538.272 688.655 536.851 690.696 536.851C692.646 536.851 694.332 538.271 694.332 539.957ZM682.709 539.957V549.094H675.522V539.957C675.522 538.272 677.12 536.851 679.071 536.851C681.113 536.851 682.709 538.271 682.709 539.957ZM667.805 522.391H675.435V523.985H667.805V522.391ZM685.37 520.524H692.999V522.124H685.37V520.524ZM673.214 526.026H680.847V527.714H673.214V526.026ZM656.624 530.285H701.519V531.884H656.624V530.285ZM704.713 430.918L695.839 438.372H714.116L704.713 430.918ZM712.342 438.638V448.574H697.704V438.638H712.342ZM703.383 442.453H706.398V439.523H703.383V442.453ZM780.924 474.569L768.414 485.127H794.321L780.924 474.569ZM791.481 485.838V499.943H799.379V561.25H762.202V499.943H771.163V485.838H791.481ZM779.06 490.627H783.233V486.459H779.06V490.627ZM771.519 503.403H777.817V504.645H771.519V503.403ZM793.435 517.956V525.407H787.49V517.956C787.49 516.533 788.731 515.381 790.419 515.381C792.014 515.381 793.435 516.533 793.435 517.956ZM783.852 517.956V525.407H777.907V517.956C777.907 516.533 779.237 515.381 780.835 515.381C782.432 515.381 783.852 516.533 783.852 517.956ZM774.271 517.956V525.407H768.325V517.956C768.325 516.533 769.658 515.381 771.255 515.381C772.94 515.381 774.271 516.533 774.271 517.956ZM783.587 539.868H789.886V541.199H783.587V539.868ZM775.865 540.132H782.165V541.466H775.865V540.132ZM780.305 541.82H786.692V543.238H780.305V541.82ZM784.029 544.216H790.329V545.545H784.029V544.216ZM776.488 544.216H782.878V545.545H776.488V544.216ZM771.607 556.902H777.907V558.233H771.607V556.902ZM768.591 555.217H774.891V556.546H768.591V555.217ZM765.574 553.529H771.874V554.863H765.574V553.529ZM789.62 553.175H795.917V554.419H789.62V553.175ZM785.982 501.897H792.278V503.136H785.982V501.897ZM776.043 506.421H782.343V507.752H776.043V506.421ZM762.203 509.881H799.38V511.654H762.203V509.881ZM762.203 529.043H799.38V532.769H762.203V529.043ZM679.16 487.521L663.991 500.21H695.396L679.16 487.521ZM692.024 500.919V516.976H667.361V500.919H692.024ZM676.944 506.953H682V501.896H676.944V506.953ZM702.671 542.974L703.914 542.353V551.846L705.954 550.959V541.466L710.214 539.425V548.918L712.164 547.943V538.45L716.423 536.408V545.901L718.464 544.925V535.432L722.723 533.39V542.883L724.675 541.909V532.415L728.933 530.374V539.867L730.975 538.98V529.398L735.233 527.356V536.849L737.186 535.963V526.47L741.444 524.341V533.832L743.485 532.946V523.453L747.654 521.414V530.907L749.695 529.929V520.436L753.954 518.397V527.89L755.904 526.913V517.42L760.165 515.379V524.874L761.052 524.52V556.458L702.672 584.496L702.671 542.974ZM767.794 485.305V487.256L766.109 486.459V478.297L762.38 476.52V484.773L760.695 483.885V475.723L757.059 473.946V482.2L755.282 481.313V473.149L751.734 471.378V479.627L749.961 478.74V470.576L746.32 468.892V476.963L744.636 476.166V468.006L740.909 466.229V474.391L739.223 473.593V465.432L735.584 463.656V471.82L733.9 471.018V462.859L730.173 461.083V469.247L728.486 468.45V460.285L724.848 458.513V466.673L723.076 465.875V457.711L719.524 455.939V464.098L719.081 463.923V491.428L761.048 511.566V498.792H770.452V485.306H767.794V485.305Z" fill="#0089D1"/>
<path fill-rule="evenodd" clip-rule="evenodd" d="M287.102 447.421L285.682 460.728L238.572 455.583L239.99 442.275L287.102 447.421ZM249.572 568.88C274.148 568.88 295.353 578.639 303.957 592.478H195.008C203.792 578.639 224.907 568.88 249.572 568.88ZM228.635 532.948L278.673 538.45L278.408 541.466L228.279 535.965L228.635 532.948ZM247.975 421.247L283.996 425.151L284.262 422.491L248.24 418.586L247.975 421.247ZM239.015 437.749L289.143 443.161L288.788 446.266L238.749 440.765L239.015 437.749ZM236.974 456.735L287.013 462.237L286.747 465.344L236.618 459.842L236.974 456.735ZM234.933 475.811L284.973 481.312L284.618 484.328L234.579 478.918L234.933 475.811ZM232.804 494.799L282.931 500.298L282.488 503.403L232.449 497.904L232.804 494.799ZM230.763 513.872L280.802 519.374L280.447 522.479L230.409 516.975L230.763 513.872ZM279.294 441.209L280.98 425.951L250.726 422.667L249.04 437.925L279.294 441.209ZM258.711 430.208L258.177 435.62L252.943 435.089L253.477 429.676C253.655 428.169 254.984 427.014 256.403 427.191C257.823 427.369 258.889 428.7 258.711 430.208ZM276.721 432.25L276.1 437.66L270.866 437.039L271.486 431.629C271.666 430.119 272.995 429.055 274.414 429.232C275.834 429.321 276.899 430.65 276.721 432.25ZM267.76 431.272L267.14 436.685L261.906 436.064L262.526 430.651C262.615 429.144 263.945 427.989 265.454 428.258C266.874 428.347 267.849 429.676 267.76 431.272ZM244.869 445.471L243.895 454.251L240.789 453.897L241.764 445.114C241.854 444.404 242.563 443.872 243.45 443.959C244.338 444.048 244.958 444.671 244.869 445.471ZM275.302 526.648L274.237 535.433L271.22 535.077L272.196 526.294C272.285 525.583 272.994 525.053 273.882 525.14C274.68 525.318 275.302 525.94 275.302 526.648ZM270.954 526.115L269.979 534.99L266.875 534.633L267.85 525.851C267.938 525.14 268.649 524.609 269.535 524.698C270.421 524.786 271.043 525.497 270.954 526.115ZM266.607 525.761L265.631 534.458L262.614 534.19L263.502 525.318C263.591 524.608 264.388 524.163 265.276 524.253C266.074 524.343 266.695 524.965 266.607 525.761ZM262.349 525.229L261.371 534.009L258.267 533.655L259.243 524.875C259.332 524.162 260.042 523.719 260.928 523.719C261.816 523.898 262.436 524.521 262.349 525.229ZM258 524.697L257.025 533.567L254.008 533.213L254.894 524.432C254.983 523.72 255.782 523.188 256.581 523.277C257.468 523.366 258.089 524.073 258 524.697ZM253.742 524.343L252.766 533.035L249.66 532.769L250.548 523.897C250.637 523.187 251.434 522.745 252.323 522.833C253.209 522.922 253.831 523.542 253.742 524.343ZM249.394 523.809L248.42 532.592L245.314 532.238L246.289 523.542C246.377 522.745 247.176 522.301 247.974 522.301C248.863 522.479 249.483 523.099 249.394 523.809ZM245.047 523.366L244.16 532.148L240.966 531.795L241.943 523.009C242.032 522.301 242.83 521.77 243.717 521.859C244.515 521.947 245.137 522.655 245.047 523.366ZM240.789 522.922L239.813 531.706L236.707 531.352L237.683 522.567C237.772 521.859 238.571 521.327 239.369 521.417C240.169 521.505 240.878 522.124 240.789 522.922ZM236.441 522.391L235.555 531.173L232.362 530.817L233.337 522.124C233.425 521.326 234.136 520.883 235.022 520.883C235.909 521.062 236.53 521.68 236.441 522.391ZM277.342 507.396L276.454 516.179L273.261 515.825L274.236 507.039C274.325 506.332 275.035 505.888 275.922 505.888C276.81 506.065 277.43 506.685 277.342 507.396ZM273.083 506.953L272.019 515.735L269.002 515.381L269.978 506.596C270.067 505.888 270.776 505.357 271.665 505.446C272.462 505.532 273.083 506.242 273.083 506.953ZM268.736 506.507L267.76 515.293L264.654 514.938L265.631 506.064C265.719 505.445 266.428 504.913 267.316 505.002C268.203 505.09 268.825 505.711 268.736 506.507ZM264.477 505.978L263.414 514.76L260.397 514.496L261.283 505.711C261.46 504.913 262.17 504.47 263.057 504.47C263.857 504.646 264.477 505.267 264.477 505.978ZM260.131 505.532L259.153 514.317L256.049 513.959L257.026 505.178C257.115 504.47 257.824 503.936 258.712 504.023C259.598 504.111 260.219 504.824 260.131 505.532ZM255.783 505.09L254.807 513.872L251.791 513.516L252.677 504.646C252.766 504.023 253.566 503.491 254.363 503.581C255.251 503.669 255.872 504.29 255.783 505.09ZM251.524 504.559L250.548 513.34L247.442 513.073L248.42 504.29C248.42 503.49 249.216 503.047 250.105 503.047C250.992 503.226 251.611 503.847 251.524 504.559ZM247.176 504.111L246.2 512.896L243.183 512.541L244.071 503.757C244.159 503.047 244.957 502.515 245.756 502.694C246.644 502.693 247.266 503.403 247.176 504.111ZM242.83 503.669L241.943 512.454L238.749 512.098L239.724 503.226C239.813 502.605 240.612 502.073 241.498 502.162C242.298 502.251 243.006 502.872 242.83 503.669ZM238.571 503.136L237.595 511.923L234.489 511.654L235.465 502.872C235.554 502.072 236.353 501.63 237.152 501.63C237.949 501.807 238.661 502.428 238.571 503.136ZM279.471 488.144L278.496 496.927L275.391 496.66L276.366 487.79C276.454 487.077 277.164 486.634 278.051 486.723C278.851 486.813 279.56 487.434 279.471 488.144ZM275.125 487.698L274.236 496.483L271.043 496.128L272.019 487.344C272.108 486.634 272.905 486.102 273.705 486.192C274.591 486.28 275.212 486.988 275.125 487.698ZM270.866 487.256L269.891 496.039L266.785 495.685L267.76 486.902C267.849 486.192 268.559 485.66 269.445 485.749C270.245 485.838 270.866 486.459 270.866 487.256ZM266.518 486.723L265.543 495.508L262.437 495.241L263.415 486.459C263.503 485.659 264.212 485.217 265.1 485.305C265.985 485.394 266.607 486.013 266.518 486.723ZM262.259 486.28L261.193 495.063L258.176 494.709L259.065 485.925C259.242 485.216 259.952 484.683 260.839 484.772C261.637 484.862 262.259 485.57 262.259 486.28ZM257.911 485.838L256.936 494.62L253.831 494.264L254.806 485.484C254.894 484.773 255.605 484.239 256.491 484.329C257.38 484.417 258 485.127 257.911 485.838ZM253.565 485.394L252.588 494.086L249.571 493.821L250.458 485.04C250.547 484.238 251.345 483.796 252.233 483.885C253.032 483.971 253.654 484.595 253.565 485.394ZM249.306 484.862L248.33 493.642L245.225 493.288L246.2 484.508C246.2 483.795 246.999 483.262 247.886 483.441C248.774 483.528 249.394 484.149 249.306 484.862ZM244.958 484.417L243.983 493.2L240.966 492.846L241.855 484.061C241.943 483.353 242.741 482.821 243.54 482.91C244.426 482.996 245.047 483.707 244.958 484.417ZM240.7 483.971L239.724 492.668L236.53 492.403L237.506 483.617C237.595 482.82 238.392 482.378 239.28 482.467C240.169 482.553 240.789 483.175 240.7 483.971ZM281.511 468.98L280.625 477.672L277.519 477.407L278.495 468.537C278.495 467.824 279.293 467.382 280.092 467.468C280.979 467.558 281.689 468.182 281.511 468.98ZM277.253 468.449L276.277 477.229L273.171 476.876L274.149 468.182C274.237 467.383 274.947 466.94 275.835 466.94C276.633 467.115 277.342 467.736 277.253 468.449ZM272.905 467.917L272.019 476.787L268.825 476.432L269.89 467.647C269.89 466.939 270.687 466.407 271.485 466.583C272.374 466.583 272.994 467.294 272.905 467.917ZM268.648 467.558L267.67 476.344L264.566 475.99L265.542 467.115C265.631 466.494 266.34 465.965 267.227 466.052C268.026 466.14 268.648 466.762 268.648 467.558ZM264.3 467.026L263.325 475.811L260.219 475.458L261.194 466.762C261.283 465.965 261.993 465.521 262.88 465.521C263.768 465.697 264.388 466.318 264.3 467.026ZM260.042 466.583L258.977 475.369L255.96 475.014L256.848 466.228C257.025 465.52 257.734 464.989 258.623 465.165C259.42 465.165 260.042 465.875 260.042 466.583ZM255.693 466.14L254.717 474.926L251.611 474.569L252.589 465.786C252.677 465.076 253.388 464.546 254.275 464.633C255.163 464.722 255.783 465.344 255.693 466.14ZM251.347 465.607L250.372 474.39L247.355 474.035L248.241 465.344C248.421 464.546 249.13 464.098 250.017 464.098C250.815 464.276 251.435 464.899 251.347 465.607ZM247.089 465.165L246.112 473.945L243.006 473.592L243.983 464.81C244.072 464.097 244.781 463.566 245.669 463.744C246.555 463.744 247.176 464.452 247.089 465.165ZM242.74 464.722L241.764 473.503L238.748 473.149L239.634 464.366C239.723 463.656 240.523 463.124 241.321 463.214C242.208 463.302 242.83 463.923 242.74 464.722ZM283.642 449.727L282.664 458.513L279.56 458.157L280.536 449.285C280.625 448.664 281.422 448.132 282.31 448.22C283.108 448.309 283.73 448.931 283.642 449.727ZM279.294 449.194L278.408 457.98L275.302 457.71L276.277 448.93C276.277 448.13 277.076 447.684 277.875 447.684C278.762 447.863 279.471 448.486 279.294 449.194ZM275.036 448.752L274.06 457.533L270.954 457.179L271.93 448.397C272.019 447.684 272.728 447.153 273.617 447.331C274.503 447.331 275.125 448.044 275.036 448.752ZM270.688 448.309L269.801 457.09L266.608 456.736L267.671 447.951C267.671 447.243 268.471 446.711 269.269 446.801C270.157 446.889 270.866 447.508 270.688 448.309ZM266.428 447.774L265.453 456.557L262.349 456.292L263.325 447.507C263.414 446.709 264.123 446.266 265.011 446.266C265.809 446.445 266.428 447.064 266.428 447.774ZM262.082 447.331L261.106 456.114L258 455.761L258.976 446.975C259.065 446.267 259.774 445.735 260.662 445.913C261.549 445.913 262.17 446.621 262.082 447.331ZM257.823 446.889L256.848 455.672L253.742 455.318L254.717 446.533C254.806 445.825 255.516 445.293 256.403 445.382C257.202 445.471 257.823 446.089 257.823 446.889ZM253.477 446.355L252.5 455.138L249.394 454.874L250.372 446.088C250.46 445.291 251.169 444.849 252.058 444.937C252.943 445.027 253.565 445.646 253.477 446.355ZM249.217 445.913L248.152 454.696L245.138 454.341L246.024 445.557C246.201 444.85 246.912 444.315 247.798 444.491C248.597 444.49 249.217 445.203 249.217 445.913ZM285.061 466.494L283.642 479.715L236.53 474.569L237.949 461.35L285.061 466.494ZM283.02 485.57L281.511 498.791L234.4 493.643L235.908 480.425L283.02 485.57ZM280.891 504.646L279.471 517.867L232.362 512.72L233.781 499.5L280.891 504.646ZM278.851 523.63L277.343 536.941L230.321 531.795L231.739 518.487L278.851 523.63ZM276.721 542.707L273.704 570.744C272.994 570.563 272.285 570.388 271.485 570.121L273.793 549.626C273.97 547.589 272.195 545.813 269.71 545.459C267.227 545.191 265.098 546.609 264.919 548.74L262.791 568.437C261.993 568.347 261.283 568.258 260.484 568.169L262.613 548.474C262.79 546.433 261.016 544.572 258.621 544.304C256.225 544.035 254.007 545.458 253.83 547.499L251.61 567.55C250.901 567.461 250.192 567.461 249.571 567.461H249.305L251.523 547.23C251.7 545.191 249.925 543.328 247.531 543.06C245.046 542.794 242.917 544.215 242.651 546.254L240.345 567.904C239.546 567.993 238.748 568.079 237.949 568.169L240.345 545.989C240.611 544.035 238.748 542.085 236.352 541.819C233.957 541.554 231.737 542.972 231.56 545.1L228.811 569.854C227.923 570.03 226.947 570.296 226.06 570.562L229.609 537.562L276.721 542.707Z" fill="#0089D1"/>
<path fill-rule="evenodd" clip-rule="evenodd" d="M590.973 589.373L556.99 589.727L561.516 584.228L563.201 582.275L564.268 580.946L565.951 578.992L567.015 577.663L568.614 575.799L591.06 548.828L613.685 575.356C613.504 575.532 613.239 575.798 613.062 575.974L627.347 562.666C630.185 565.151 633.024 567.636 635.864 570.029C637.817 566.925 641.188 563.02 645.447 563.465C652.809 563.73 653.876 575.087 653.876 575.087L649.97 575.176L650.059 577.396C651.481 578.814 652.543 580.588 653.164 582.539C653.252 582.628 653.252 582.718 653.342 582.807L653.611 583.161L653.7 583.427C653.877 583.784 653.966 584.139 654.232 584.582L638.527 584.671C643.763 584.671 648.995 584.582 654.232 584.582L653.965 584.139L653.787 583.695L653.699 583.427C653.876 583.784 653.966 584.139 654.232 584.582C654.409 585.114 655.028 586.621 655.117 587.154L663.367 587.511C664.7 587.865 665.408 587.777 666.295 592.122L640.746 592.3C640.833 592.742 628.679 592.122 628.679 592.122L602.771 591.857C602.771 591.857 602.771 590.258 602.594 589.547L590.973 589.373ZM626.903 589.018C626.636 588.752 626.282 588.575 625.927 588.399C626.282 588.574 626.637 588.752 626.903 589.018ZM653.342 582.808C653.252 582.719 653.252 582.629 653.164 582.54L653.342 582.808Z" fill="#0089D1"/>
<path fill-rule="evenodd" clip-rule="evenodd" d="M640.033 528.866V531.53H626.458V545.811H632.315L628.235 547.14V592.476H619.273V547.229L615.104 545.811H621.047V531.53H575.888V545.811H581.833L577.753 547.14V592.476H568.702V547.229L564.71 545.811H570.564V531.53H556.99V528.866H553.353V526.914H570.564V519.194H566.483V516.177C560.896 515.379 555.129 514.405 549.361 513.249V506.684C547.23 506.331 545.013 505.886 542.795 505.355V500.029C540.311 499.587 537.74 499.053 535.256 498.524C535.256 496.925 535.256 495.33 535.256 493.73C577.931 500.918 620.071 500.472 661.683 493.73C661.683 495.33 661.683 496.925 661.683 498.524C659.199 499.053 656.712 499.587 654.142 500.029V505.355C652.011 505.886 649.792 506.331 647.577 506.773V513.25C641.987 514.495 636.218 515.557 630.454 516.355V519.194H626.458V526.914H643.584V528.866H640.033ZM579.969 517.687V519.194H575.889V526.914H594.433V518.397C589.641 518.309 584.851 518.044 579.969 517.687ZM621.048 519.194H616.969V517.776C612.264 518.218 607.386 518.397 602.594 518.486V526.914H621.048V519.194Z" fill="#0089D1"/>
<path fill-rule="evenodd" clip-rule="evenodd" d="M535.963 270.953C533.479 273.259 534.192 272.993 528.424 271.308C523.365 269.711 525.762 269.179 521.239 271.751C517.156 274.147 510.502 276.543 507.395 278.405C508.551 280.979 518.487 289.407 520.883 292.867C519.994 293.31 519.285 293.666 518.31 294.11C516.801 294.819 517.156 294.819 515.382 293.755C511.478 291.536 498.967 284.439 496.483 283.373C493.202 284.793 484.505 289.23 481.491 289.052C480.07 288.964 477.762 288.609 478.21 286.834C479.361 282.487 487.169 280.09 492.227 277.872C494.265 276.986 493.733 277.075 494.177 274.855C494.712 272.46 498.083 255.07 498.881 254.184C499.236 253.918 501.986 252.765 502.517 252.498C502.784 254.096 502.961 255.87 503.05 257.555L503.936 267.403C503.936 269 504.203 270.863 504.47 272.371C506.776 271.218 509.083 270.242 511.479 269.089C523.366 263.41 521.24 267.226 523.987 260.838C525.587 257.289 525.587 255.159 529.046 255.693C528.424 262.79 530.373 267.227 535.963 270.953ZM435 202.193C438.195 203.17 437.482 203.258 441.92 199.178C445.824 195.628 443.428 196.161 448.664 196.605C453.275 196.959 460.373 196.339 464.011 196.693C464.1 199.444 458.69 211.333 457.979 215.501C458.955 215.501 459.753 215.501 460.816 215.501C462.505 215.501 462.15 215.68 463.389 213.995C465.963 210.267 474.125 198.467 475.989 196.516C479.628 196.428 489.299 196.605 491.96 195.274C493.202 194.565 495.154 193.145 493.999 191.725C491.071 188.353 482.998 189.507 477.497 189.685C475.281 189.685 475.812 189.596 474.39 187.822C472.883 185.87 462.415 171.586 461.348 171.142C460.905 171.054 457.889 171.142 457.356 171.142C457.711 172.739 458.335 174.337 458.955 175.933L462.415 185.248C463.036 186.668 463.657 188.53 464.1 189.951C461.529 189.862 458.955 189.951 456.293 189.951C443.162 189.951 446.8 192.524 441.475 187.911C438.55 185.337 437.662 183.474 434.732 185.426C438.284 191.547 438.46 196.427 435 202.193ZM433.58 193.145C434.912 192.968 435.355 195.008 433.845 195.274L431.719 195.54C430.385 195.807 429.853 193.677 431.36 193.411L433.58 193.145ZM245.137 335.099C244.426 336.519 242.474 335.453 243.096 334.212L243.629 333.058C244.338 331.728 246.29 332.792 245.581 334.034L245.137 335.099ZM248.508 328.089C247.798 329.42 245.846 328.444 246.555 327.113L247.532 325.161C248.152 323.83 250.106 324.893 249.484 326.136L248.508 328.089ZM252.5 320.282C251.88 321.523 249.838 320.637 250.548 319.305L251.611 317.354C252.234 316.112 254.185 316.999 253.565 318.419L252.5 320.282ZM256.759 312.652C255.96 313.983 254.097 312.74 254.807 311.587L255.96 309.635C256.759 308.304 258.534 309.547 257.823 310.7L256.759 312.652ZM261.194 305.11C260.398 306.353 258.534 305.2 259.332 303.958L260.485 302.095C261.194 300.852 263.146 302.007 262.349 303.247L261.194 305.11ZM265.896 297.658C265.187 298.811 263.234 297.746 264.033 296.504L265.275 294.641C265.984 293.49 267.936 294.553 267.05 295.885L265.896 297.658ZM270.776 290.472C269.89 291.624 268.202 290.295 269.002 289.141L270.244 287.368C271.131 286.214 272.904 287.545 272.018 288.699L270.776 290.472ZM275.922 283.373C275.036 284.527 273.351 283.196 274.236 282.044L275.568 280.27C276.454 279.116 278.139 280.536 277.253 281.6L275.922 283.373ZM281.068 276.72C280.27 277.164 279.294 276.453 279.383 275.567C279.294 275.034 279.737 274.325 280.359 274.236L281.068 273.348C281.956 272.284 283.73 273.616 282.753 274.767L282.576 275.034L282.93 275.122C284.35 275.656 283.463 277.696 282.133 277.164L281.068 276.72ZM287.013 269.799C285.948 270.864 284.439 269.356 285.417 268.29L286.836 266.693C287.899 265.54 289.408 267.138 288.434 268.112L287.013 269.799ZM292.956 263.323C291.981 264.388 290.295 262.879 291.359 261.814L292.867 260.217C293.844 259.154 295.439 260.662 294.463 261.725L292.956 263.323ZM299.079 257.113C297.924 258.088 296.506 256.402 297.57 255.516L299.079 254.007C300.232 252.942 301.652 254.627 300.675 255.604L299.079 257.113ZM305.466 251.08C304.401 252.055 302.892 250.459 303.957 249.483L305.644 247.975C306.708 246.999 308.217 248.684 307.063 249.66L305.466 251.08ZM312.032 245.4C311.055 246.288 309.547 244.691 310.7 243.716L312.387 242.296C313.629 241.319 314.872 243.183 313.717 243.982L312.032 245.4ZM318.952 239.9C317.71 240.788 316.469 239.014 317.622 238.215L319.308 236.884C320.55 235.998 321.792 237.772 320.639 238.57L318.952 239.9ZM325.96 234.754C324.897 235.553 323.476 233.868 324.719 232.98C325.34 232.537 325.96 232.092 326.582 231.737C327.647 230.94 329.066 232.625 327.824 233.512C327.203 233.957 326.582 234.311 325.96 234.754ZM333.236 229.875C331.994 230.674 330.928 228.721 332.083 228.012L333.946 226.858C335.189 226.061 336.342 228.012 335.1 228.721L333.236 229.875ZM340.688 225.35C339.536 226.061 338.293 224.198 339.625 223.398L341.577 222.335C342.729 221.624 343.972 223.487 342.641 224.286L340.688 225.35ZM348.409 221.092C346.988 221.801 346.102 219.761 347.344 219.14L349.295 218.075C350.627 217.454 351.603 219.494 350.36 220.115L348.409 221.092ZM356.216 217.189C354.972 217.809 353.908 215.857 355.239 215.147C355.948 214.881 356.57 214.526 357.279 214.26C358.521 213.638 359.497 215.59 358.167 216.212C357.545 216.566 356.836 216.833 356.216 217.189ZM364.199 213.55C362.781 214.084 362.071 212.042 363.313 211.509L365.353 210.623C366.772 210.089 367.481 212.218 366.152 212.663L364.199 213.55ZM372.273 210.267C370.941 210.8 370.145 208.759 371.475 208.226L373.604 207.429C374.846 206.896 375.733 208.936 374.314 209.47L372.273 210.267ZM380.524 207.252C379.193 207.694 378.396 205.653 379.815 205.21C380.524 204.944 381.234 204.678 381.943 204.501C383.186 203.969 383.984 206.009 382.565 206.542C381.856 206.807 381.235 206.984 380.524 207.252ZM388.865 204.59C387.355 204.944 386.912 202.816 388.244 202.461L390.372 201.838C391.793 201.484 392.325 203.612 390.907 203.969L388.865 204.59ZM397.292 202.193C395.874 202.549 395.341 200.42 396.76 200.065L398.889 199.532C400.219 199.178 400.84 201.307 399.421 201.661L397.292 202.193ZM405.811 200.153C404.477 200.507 403.769 198.379 405.278 197.936L407.495 197.493C409.005 197.225 409.27 199.444 407.937 199.621L405.811 200.153ZM414.325 198.29C412.907 198.556 412.553 196.427 413.972 196.161L416.101 195.807C417.609 195.54 417.963 197.67 416.545 197.936L414.325 198.29ZM423.021 196.782C421.603 197.048 421.157 194.919 422.668 194.653L424.799 194.299C426.218 194.033 426.66 196.251 425.152 196.517L423.021 196.782ZM127.581 282.664C125.096 284.971 125.807 284.704 120.039 282.93C114.981 281.422 117.376 280.802 112.853 283.464C108.771 285.77 102.116 288.254 99.0119 290.118C100.165 292.69 110.102 301.118 112.497 304.578C111.609 305.021 110.9 305.289 109.924 305.732C108.415 306.53 108.771 306.53 106.996 305.466C103.092 303.247 90.5819 296.061 88.0979 295.085C84.8159 296.504 76.1209 300.941 73.1039 300.764C71.6839 300.675 69.3759 300.232 69.8219 298.456C70.9739 294.109 78.7819 291.713 83.8379 289.496C85.8789 288.61 85.3469 288.786 85.7899 286.568C86.3249 284.085 89.6949 266.783 90.4939 265.896C90.7599 265.631 93.5979 264.388 94.1299 264.211C94.3979 265.808 94.5759 267.494 94.6639 269.179L95.5499 279.116C95.5499 280.624 95.8159 282.576 96.0849 283.995C98.3909 282.93 100.697 281.865 103.092 280.801C114.981 275.121 112.764 278.938 115.601 272.55C117.199 269.002 117.109 266.873 120.659 267.404C120.04 274.501 121.991 278.938 127.581 282.664ZM125.008 273.881C123.677 274.324 124.21 276.364 125.717 276.009L127.759 275.3C129 274.945 128.557 272.815 127.049 273.17L125.008 273.881ZM356.127 321.611C357.279 322.589 358.522 320.814 357.456 319.927L356.57 319.216C355.327 318.239 354.085 320.016 355.151 320.902L356.127 321.611ZM350.005 316.734C351.159 317.62 352.488 315.935 351.425 315.047L349.651 313.628C348.496 312.74 347.166 314.514 348.319 315.402L350.005 316.734ZM343.085 311.409C344.149 312.297 345.568 310.612 344.414 309.635L342.641 308.304C341.488 307.507 340.069 309.192 341.311 310.08L343.085 311.409ZM335.986 306.263C337.228 307.152 338.383 305.2 337.228 304.49L335.366 303.247C334.123 302.361 332.971 304.312 334.123 305.021L335.986 306.263ZM328.711 301.384C329.954 302.183 331.107 300.32 329.954 299.521L328.092 298.367C326.85 297.57 325.607 299.344 326.85 300.143L328.711 301.384ZM321.349 296.681C322.501 297.392 323.744 295.618 322.412 294.819L320.55 293.666C319.397 292.956 318.155 294.73 319.397 295.53L321.349 296.681ZM313.717 292.247C315.138 292.956 316.024 291.005 314.872 290.295L312.918 289.23C311.589 288.519 310.613 290.472 311.855 291.182L313.717 292.247ZM306.087 288.076C307.417 288.698 308.306 286.744 307.063 286.125L305.112 285.06C303.78 284.439 302.804 286.391 304.136 287.013L306.087 288.076ZM298.192 284.172C299.521 284.793 300.498 282.841 299.166 282.132L297.215 281.244C295.973 280.623 294.91 282.487 296.238 283.196L298.192 284.172ZM290.295 280.535C291.714 281.067 292.423 279.027 291.093 278.493L289.052 277.607C287.721 277.075 286.924 279.115 288.254 279.647L290.295 280.535ZM273.97 274.147C275.479 274.59 275.922 272.461 274.68 272.107L272.551 271.396C271.043 270.953 270.6 273.082 271.842 273.436L273.97 274.147ZM265.631 271.484C266.962 271.928 267.583 269.799 266.251 269.356L264.122 268.735C262.702 268.379 262.082 270.51 263.501 270.864L265.631 271.484ZM257.202 269.179C258.444 269.534 259.243 267.494 257.734 267.05L255.606 266.516C254.008 266.162 253.742 268.379 255.074 268.645L257.202 269.179ZM248.685 267.139C250.105 267.405 250.459 265.274 249.129 265.008L246.911 264.565C245.491 264.299 245.046 266.428 246.466 266.694L248.685 267.139ZM240.08 265.541C241.409 265.808 241.942 263.678 240.434 263.323C239.724 263.234 238.925 263.057 238.215 262.969C236.886 262.703 236.353 264.831 237.861 265.186C238.571 265.274 239.37 265.364 240.08 265.541ZM231.383 264.21C232.892 264.387 233.069 262.17 231.65 262.081L229.521 261.814C228.013 261.637 227.836 263.856 229.255 263.944L231.383 264.21ZM222.689 263.323C224.109 263.411 224.376 261.282 222.867 261.105L220.649 260.928C219.319 260.751 218.964 262.969 220.561 263.145L222.689 263.323ZM213.995 262.702C215.504 262.79 215.414 260.573 214.084 260.573L211.864 260.484C210.358 260.396 210.358 262.613 211.777 262.613L213.995 262.702ZM205.211 262.524C206.63 262.524 206.719 260.307 205.211 260.307C204.502 260.307 203.704 260.307 202.993 260.307C201.661 260.307 201.485 262.524 202.993 262.524C203.792 262.524 204.502 262.524 205.211 262.524ZM196.427 262.702C198.025 262.524 197.759 260.396 196.34 260.484L194.211 260.573C192.702 260.661 192.88 262.879 194.3 262.79L196.427 262.702ZM187.733 263.145C189.152 263.057 188.975 260.839 187.556 260.928L185.337 261.105C183.919 261.193 184.097 263.411 185.516 263.323L187.733 263.145ZM179.04 263.944C180.369 263.856 180.281 261.636 178.772 261.814C178.063 261.903 177.265 261.991 176.555 262.081C175.223 262.17 175.313 264.388 176.821 264.21C177.531 264.122 178.24 264.033 179.04 263.944ZM170.343 265.097C171.851 264.831 171.32 262.702 169.989 262.969L167.771 263.234C166.352 263.59 166.795 265.719 168.125 265.454L170.343 265.097ZM161.649 266.605C163.069 266.34 162.715 264.122 161.295 264.388L159.078 264.831C157.746 265.097 158.1 267.227 159.521 266.961L161.649 266.605ZM153.132 268.29C154.463 268.113 154.11 265.895 152.601 266.162L150.471 266.694C148.962 267.05 149.673 269.179 151.004 268.824L153.132 268.29ZM144.615 270.421C146.035 269.976 145.413 267.848 143.995 268.291L141.864 268.825C140.445 269.179 141.067 271.308 142.487 270.954L144.615 270.421ZM136.099 272.727C137.518 272.372 136.985 270.153 135.476 270.598L133.435 271.219C132.104 271.574 132.549 273.703 134.058 273.348L136.099 272.727ZM533.39 262.17C532.061 262.614 532.593 264.653 534.1 264.299L536.142 263.59C537.382 263.234 537.029 261.105 535.432 261.548L533.39 262.17ZM764.511 309.991C765.663 310.878 766.995 309.103 765.84 308.304L764.954 307.507C763.713 306.53 762.47 308.393 763.535 309.193L764.511 309.991ZM758.389 305.11C759.544 305.998 760.873 304.223 759.811 303.337L758.035 302.006C756.882 301.118 755.55 302.803 756.705 303.691L758.389 305.11ZM751.469 299.699C752.532 300.586 753.953 298.901 752.798 298.013L751.025 296.682C749.872 295.796 748.451 297.482 749.694 298.457L751.469 299.699ZM744.37 294.641C745.611 295.441 746.768 293.578 745.611 292.779L743.84 291.536C742.506 290.739 741.355 292.602 742.596 293.401L744.37 294.641ZM737.096 289.673C738.337 290.472 739.49 288.61 738.337 287.81L736.477 286.657C735.233 285.859 734.08 287.722 735.233 288.519L737.096 289.673ZM729.73 284.971C730.885 285.769 732.126 283.995 730.885 283.108L728.932 281.955C727.868 281.245 726.539 283.019 727.868 283.907L729.73 284.971ZM722.19 280.535C723.523 281.244 724.408 279.292 723.256 278.672L721.302 277.518C719.973 276.898 718.995 278.849 720.239 279.47L722.19 280.535ZM714.473 276.364C715.802 276.986 716.78 275.121 715.448 274.412L713.498 273.436C712.165 272.727 711.28 274.767 712.52 275.39L714.473 276.364ZM706.573 272.461C707.906 273.082 708.882 271.13 707.552 270.51L705.598 269.533C704.357 268.912 703.293 270.864 704.622 271.484L706.573 272.461ZM698.68 268.824C700.101 269.356 700.81 267.315 699.478 266.782L697.528 265.895C696.106 265.364 695.308 267.493 696.64 267.936L698.68 268.824ZM690.519 265.541C691.848 266.073 692.734 264.033 691.316 263.411L689.274 262.702C687.946 262.17 687.147 264.21 688.477 264.742L690.519 265.541ZM682.354 262.524C683.864 262.968 684.307 260.75 683.063 260.396L680.935 259.685C679.425 259.242 678.983 261.37 680.226 261.814L682.354 262.524ZM674.016 259.773C675.435 260.216 675.966 258.088 674.636 257.733L672.505 257.112C671.087 256.667 670.467 258.797 671.886 259.152L674.016 259.773ZM665.586 257.468C666.83 257.822 667.627 255.782 666.117 255.337L663.991 254.806C662.391 254.452 662.126 256.669 663.458 256.936L665.586 257.468ZM657.071 255.517C658.489 255.782 658.842 253.563 657.513 253.297L655.293 252.854C653.875 252.588 653.518 254.717 654.939 254.982L657.071 255.517ZM648.463 253.831C649.792 254.097 650.328 251.966 648.817 251.701C648.108 251.523 647.399 251.435 646.598 251.257C645.357 251.08 644.738 253.209 646.244 253.475C647.045 253.563 647.754 253.742 648.463 253.831ZM639.767 252.499C641.279 252.676 641.455 250.547 640.034 250.371L637.907 250.103C636.397 249.926 636.218 252.145 637.64 252.234L639.767 252.499ZM631.074 251.611C632.492 251.789 632.758 249.572 631.252 249.394L629.033 249.217C627.704 249.128 627.348 251.257 628.944 251.434L631.074 251.611ZM622.379 251.08C623.889 251.08 623.8 248.862 622.468 248.862L620.248 248.772C618.742 248.772 618.742 250.902 620.16 250.992L622.379 251.08ZM613.594 250.814C615.015 250.814 615.105 248.684 613.594 248.595C612.885 248.595 612.087 248.595 611.378 248.595C610.045 248.595 609.869 250.814 611.378 250.814C612.176 250.814 612.885 250.814 613.594 250.814ZM604.813 250.991C606.41 250.902 606.143 248.683 604.725 248.771L602.594 248.861C601.086 248.95 601.265 251.167 602.683 251.079L604.813 250.991ZM596.117 251.434C597.539 251.346 597.45 249.128 595.94 249.305L593.719 249.482C592.301 249.571 592.479 251.7 593.898 251.61L596.117 251.434ZM587.424 252.322C588.753 252.145 588.666 249.926 587.157 250.103C586.446 250.192 585.649 250.281 584.94 250.371C583.607 250.459 583.696 252.677 585.207 252.499C585.915 252.411 586.624 252.322 587.424 252.322ZM578.729 253.386C580.236 253.12 579.704 250.991 578.375 251.257L576.156 251.611C574.738 251.877 575.18 254.008 576.51 253.742L578.729 253.386ZM570.032 254.894C571.454 254.628 571.098 252.499 569.678 252.766L567.463 253.12C566.129 253.386 566.484 255.605 567.905 255.337L570.032 254.894ZM561.517 256.669C562.847 256.403 562.493 254.185 560.985 254.54L558.855 254.983C557.349 255.428 558.057 257.468 559.387 257.114L561.517 256.669ZM552.998 258.708C554.42 258.266 553.796 256.226 552.466 256.58L550.248 257.113C548.829 257.556 549.449 259.596 550.871 259.242L552.998 258.708ZM544.571 261.016C545.901 260.662 545.369 258.531 543.948 258.888L541.82 259.508C540.488 259.863 540.934 262.081 542.44 261.637L544.571 261.016Z" fill="#0089D1"/>
</g>
<defs>
<clipPath id="clip0_100_1587">
<rect width="800" height="800" fill="white"/>
</clipPath>
</defs>
</svg>
